<svg width="59" height="53" viewBox="0 0 59 53" fill="none" xmlns="http://www.w3.org/2000/svg">
<path d="M17.11 32.9778V14.7222H5.9C2.655 14.7222 0 17.3722 0 20.6111V38.2778C0 41.5167 2.655 44.1667 5.9 44.1667H8.85V53L17.7 44.1667H32.45C35.695 44.1667 38.35 41.5167 38.35 38.2778V32.9189C38.1559 32.9592 37.9582 32.9799 37.76 32.9807H17.11V32.9778ZM53.1 0H26.55C23.305 0 20.65 2.65 20.65 5.88889V29.4444H41.3L50.15 38.2778V29.4444H53.1C56.345 29.4444 59 26.7974 59 23.5556V5.88889C59 2.65 56.345 0 53.1 0Z" fill="#193FAE"/>
</svg>
