<svg width="63" height="57" viewBox="0 0 63 57" fill="none" xmlns="http://www.w3.org/2000/svg">
<path d="M2 37.9706C2 40.2069 2.34326 42.4214 3.01018 44.4875C3.6771 46.5536 4.65462 48.4309 5.88693 50.0122C8.37569 53.2058 11.7512 55 15.2708 55H50.6597C53.2724 55.006 55.7897 53.7403 57.7039 51.4582C59.618 49.1761 60.7864 46.0475 60.9735 42.7033C61.1606 39.3592 60.3524 36.0484 58.7119 33.4389C57.0715 30.8293 54.7208 29.1152 52.1342 28.6423C52.163 22.2043 50.3637 15.9732 47.0726 11.1137C43.7816 6.25426 39.224 3.09911 34.252 2.23806C29.2799 1.377 24.2336 2.86897 20.0565 6.43508C15.8793 10.0012 12.8572 15.3973 11.555 21.6148C8.79747 22.6469 6.37533 24.7992 4.65239 27.7484C2.92945 30.6977 1.99872 34.2846 2 37.9706Z" stroke="#193FAE" stroke-width="4" stroke-linejoin="round"/>
<path d="M40.335 24.7344L28.5388 39.8716L22.6406 32.303" stroke="#193FAE" stroke-width="4" stroke-linecap="round" stroke-linejoin="round"/>
</svg>
