<svg width="40" height="40" viewBox="0 0 40 40" fill="none" xmlns="http://www.w3.org/2000/svg">
<path d="M32.5 21.502C33.3594 21.502 34.1667 21.6667 34.9219 21.996C35.6771 22.3254 36.3411 22.7734 36.9141 23.3399C37.487 23.9065 37.9362 24.5784 38.2617 25.3557C38.5872 26.1331 38.75 26.9565 38.75 27.8261C38.75 28.5112 38.6458 29.1765 38.4375 29.8221C38.2292 30.4677 37.9167 31.0672 37.5 31.6206V40L32.5 37.4704L27.5 40V31.6206C27.0964 31.0672 26.7904 30.4677 26.582 29.8221C26.3737 29.1765 26.263 28.5112 26.25 27.8261C26.25 26.9565 26.4128 26.1397 26.7383 25.3755C27.0638 24.6113 27.5065 23.9394 28.0664 23.3597C28.6263 22.78 29.2904 22.3254 30.0586 21.996C30.8268 21.6667 31.6406 21.502 32.5 21.502ZM32.5 24.0316C31.9792 24.0316 31.4909 24.1304 31.0352 24.3281C30.5794 24.5257 30.1823 24.7958 29.8438 25.1383C29.5052 25.4809 29.2383 25.8827 29.043 26.3439C28.8477 26.805 28.75 27.2991 28.75 27.8261C28.75 28.3531 28.8477 28.8472 29.043 29.3083C29.2383 29.7694 29.5052 30.1713 29.8438 30.5138C30.1823 30.8564 30.5794 31.1265 31.0352 31.3241C31.4909 31.5217 31.9792 31.6206 32.5 31.6206C33.0208 31.6206 33.5091 31.5217 33.9648 31.3241C34.4206 31.1265 34.8177 30.8564 35.1562 30.5138C35.4948 30.1713 35.7617 29.7694 35.957 29.3083C36.1523 28.8472 36.25 28.3531 36.25 27.8261C36.25 27.2991 36.1523 26.805 35.957 26.3439C35.7617 25.8827 35.4948 25.4809 35.1562 25.1383C34.8177 24.7958 34.4206 24.5257 33.9648 24.3281C33.5091 24.1304 33.0208 24.0316 32.5 24.0316ZM35 35.8893V33.6166C34.2188 33.9723 33.3854 34.1502 32.5 34.1502C31.6146 34.1502 30.7812 33.9723 30 33.6166V35.8893L32.5 34.6245L35 35.8893ZM32.5 10.1186C31.8099 10.1186 31.1654 10.2503 30.5664 10.5138C29.9674 10.7773 29.4336 11.1397 28.9648 11.6008C28.4961 12.0619 28.138 12.5955 27.8906 13.2016C27.6432 13.8076 27.513 14.4664 27.5 15.1779C27.5 16.39 27.2331 17.5296 26.6992 18.5968C26.1654 19.664 25.4102 20.5665 24.4336 21.3043C24.681 21.4229 24.9154 21.5547 25.1367 21.6996C25.3581 21.8445 25.5859 21.996 25.8203 22.1542L24.3555 24.2095C23.7174 23.7484 23.0273 23.3926 22.2852 23.1423C21.543 22.892 20.7812 22.7668 20 22.7668C18.9583 22.7668 17.9883 22.9644 17.0898 23.3597C16.1914 23.7549 15.3971 24.2951 14.707 24.9802C14.0169 25.6653 13.4766 26.4756 13.0859 27.4111C12.6953 28.3465 12.5 29.3281 12.5 30.3557H10C10 29.3939 10.1302 28.4651 10.3906 27.5692C10.651 26.6733 11.0221 25.83 11.5039 25.0395C11.9857 24.249 12.5651 23.5375 13.2422 22.9051C13.9193 22.2727 14.6875 21.7325 15.5469 21.2846C14.5833 20.5599 13.8346 19.664 13.3008 18.5968C12.7669 17.5296 12.5 16.39 12.5 15.1779C12.5 14.4796 12.3698 13.8274 12.1094 13.2213C11.849 12.6153 11.4909 12.0751 11.0352 11.6008C10.5794 11.1265 10.0521 10.7642 9.45312 10.5138C8.85417 10.2635 8.20312 10.1318 7.5 10.1186C6.8099 10.1186 6.16536 10.2503 5.56641 10.5138C4.96745 10.7773 4.43359 11.1397 3.96484 11.6008C3.49609 12.0619 3.13802 12.5955 2.89062 13.2016C2.64323 13.8076 2.51302 14.4664 2.5 15.1779H0C0 14.4928 0.0911458 13.8274 0.273438 13.1818C0.455729 12.5362 0.709635 11.9236 1.03516 11.3439C1.36068 10.7642 1.76432 10.2372 2.24609 9.76285C2.72786 9.28854 3.26823 8.88011 3.86719 8.53755C3.4375 8.07642 3.10547 7.54282 2.87109 6.93676C2.63672 6.3307 2.51302 5.70487 2.5 5.05929C2.5 4.361 2.63021 3.70883 2.89062 3.10277C3.15104 2.49671 3.50911 1.95652 3.96484 1.48221C4.42057 1.00791 4.94792 0.645586 5.54688 0.395257C6.14583 0.144928 6.79688 0.0131752 7.5 0C8.1901 0 8.83464 0.131752 9.43359 0.395257C10.0326 0.658762 10.5664 1.02108 11.0352 1.48221C11.5039 1.94335 11.862 2.47694 12.1094 3.083C12.3568 3.68906 12.487 4.34783 12.5 5.05929C12.5 5.70487 12.3828 6.3307 12.1484 6.93676C11.9141 7.54282 11.5755 8.07642 11.1328 8.53755C12.2005 9.13043 13.0729 9.9473 13.75 10.9881C14.1016 10.4611 14.5052 9.98682 14.9609 9.56522C15.4167 9.14361 15.9115 8.78788 16.4453 8.49802C16.9792 8.20817 17.5456 7.98419 18.1445 7.82609C18.7435 7.66798 19.362 7.58893 20 7.58893C20.625 7.58893 21.237 7.66798 21.8359 7.82609C22.4349 7.98419 23.0013 8.20817 23.5352 8.49802C24.069 8.78788 24.5703 9.14361 25.0391 9.56522C25.5078 9.98682 25.9115 10.4611 26.25 10.9881C26.9271 9.9473 27.7995 9.13043 28.8672 8.53755C28.4375 8.07642 28.1055 7.54282 27.8711 6.93676C27.6367 6.3307 27.513 5.70487 27.5 5.05929C27.5 4.361 27.6302 3.70883 27.8906 3.10277C28.151 2.49671 28.5091 1.95652 28.9648 1.48221C29.4206 1.00791 29.9479 0.645586 30.5469 0.395257C31.1458 0.144928 31.7969 0.0131752 32.5 0C33.1901 0 33.8346 0.131752 34.4336 0.395257C35.0326 0.658762 35.5664 1.02108 36.0352 1.48221C36.5039 1.94335 36.862 2.47694 37.1094 3.083C37.3568 3.68906 37.487 4.34783 37.5 5.05929C37.5 5.70487 37.3828 6.3307 37.1484 6.93676C36.9141 7.54282 36.5755 8.07642 36.1328 8.53755C36.7318 8.88011 37.2656 9.28854 37.7344 9.76285C38.2031 10.2372 38.6068 10.7576 38.9453 11.3241C39.2839 11.8906 39.5443 12.5033 39.7266 13.1621C39.9089 13.8208 40 14.4928 40 15.1779H37.5C37.5 14.4796 37.3698 13.8274 37.1094 13.2213C36.849 12.6153 36.4909 12.0751 36.0352 11.6008C35.5794 11.1265 35.0521 10.7642 34.4531 10.5138C33.8542 10.2635 33.2031 10.1318 32.5 10.1186ZM30 5.05929C30 5.41502 30.0651 5.7444 30.1953 6.04743C30.3255 6.35046 30.5013 6.61397 30.7227 6.83794C30.944 7.06192 31.2109 7.24638 31.5234 7.3913C31.8359 7.53623 32.1615 7.60211 32.5 7.58893C32.8516 7.58893 33.1771 7.52306 33.4766 7.3913C33.776 7.25955 34.0365 7.08169 34.2578 6.85771C34.4792 6.63373 34.6615 6.36364 34.8047 6.04743C34.9479 5.73123 35.013 5.40184 35 5.05929C35 4.70356 34.9349 4.37418 34.8047 4.07115C34.6745 3.76812 34.4987 3.50461 34.2773 3.28063C34.056 3.05665 33.7891 2.8722 33.4766 2.72727C33.1641 2.58235 32.8385 2.51647 32.5 2.52964C32.1484 2.52964 31.8229 2.59552 31.5234 2.72727C31.224 2.85903 30.9635 3.03689 30.7422 3.26087C30.5208 3.48485 30.3385 3.75494 30.1953 4.07115C30.0521 4.38735 29.987 4.71673 30 5.05929ZM5 5.05929C5 5.41502 5.0651 5.7444 5.19531 6.04743C5.32552 6.35046 5.5013 6.61397 5.72266 6.83794C5.94401 7.06192 6.21094 7.24638 6.52344 7.3913C6.83594 7.53623 7.16146 7.60211 7.5 7.58893C7.85156 7.58893 8.17708 7.52306 8.47656 7.3913C8.77604 7.25955 9.03646 7.08169 9.25781 6.85771C9.47917 6.63373 9.66146 6.36364 9.80469 6.04743C9.94792 5.73123 10.013 5.40184 10 5.05929C10 4.70356 9.9349 4.37418 9.80469 4.07115C9.67448 3.76812 9.4987 3.50461 9.27734 3.28063C9.05599 3.05665 8.78906 2.8722 8.47656 2.72727C8.16406 2.58235 7.83854 2.51647 7.5 2.52964C7.14844 2.52964 6.82292 2.59552 6.52344 2.72727C6.22396 2.85903 5.96354 3.03689 5.74219 3.26087C5.52083 3.48485 5.33854 3.75494 5.19531 4.07115C5.05208 4.38735 4.98698 4.71673 5 5.05929ZM15 15.1779C15 15.8762 15.1302 16.5283 15.3906 17.1344C15.651 17.7404 16.0091 18.2806 16.4648 18.7549C16.9206 19.2292 17.4479 19.5916 18.0469 19.8419C18.6458 20.0922 19.2969 20.224 20 20.2372C20.6901 20.2372 21.3346 20.1054 21.9336 19.8419C22.5326 19.5784 23.0664 19.2161 23.5352 18.7549C24.0039 18.2938 24.362 17.7602 24.6094 17.1542C24.8568 16.5481 24.987 15.8893 25 15.1779C25 14.4796 24.8698 13.8274 24.6094 13.2213C24.349 12.6153 23.9909 12.0751 23.5352 11.6008C23.0794 11.1265 22.5521 10.7642 21.9531 10.5138C21.3542 10.2635 20.7031 10.1318 20 10.1186C19.3099 10.1186 18.6654 10.2503 18.0664 10.5138C17.4674 10.7773 16.9336 11.1397 16.4648 11.6008C15.9961 12.0619 15.638 12.5955 15.3906 13.2016C15.1432 13.8076 15.013 14.4664 15 15.1779Z" fill="white"/>
</svg>
