<svg width="537" height="480" viewBox="0 0 537 480" fill="none" xmlns="http://www.w3.org/2000/svg">
<path opacity="0.6" d="M321.955 316H537.002V432.5L493.828 480H280.426V357L321.955 316Z" fill="#0B1D50"/>
<ellipse cx="334.968" cy="330.432" rx="5.20223" ry="6.43172" fill="#E80000"/>
<ellipse cx="350.573" cy="330.432" rx="5.20223" ry="6.43172" fill="#E4BA05"/>
<ellipse cx="366.179" cy="330.432" rx="5.20223" ry="6.43172" fill="#04FF00"/>
<rect width="10" height="36.1838" rx="5" transform="matrix(0 -1 -1 0 462.988 411.109)" fill="#D9D9D9"/>
<rect width="10" height="60.8545" rx="5" transform="matrix(0 -1 -1 0 487.66 385.109)" fill="#6682D4"/>
<rect width="10" height="52.6309" rx="5" transform="matrix(0 -1 -1 0 479.438 437.109)" fill="#3D5B68"/>
<path d="M401.312 408.5C401.312 435.838 383.087 458 360.605 458C338.123 458 319.898 435.838 319.898 408.5C319.898 381.162 338.123 359 360.605 359C383.087 359 401.312 381.162 401.312 408.5ZM333.076 408.5C333.076 426.988 345.401 441.975 360.605 441.975C375.809 441.975 388.134 426.988 388.134 408.5C388.134 390.012 375.809 375.025 360.605 375.025C345.401 375.025 333.076 390.012 333.076 408.5Z" fill="#D9D9D9"/>
<path d="M401.312 408.5C401.312 398.71 398.925 389.14 394.452 380.999C389.979 372.859 383.621 366.515 376.183 362.768C368.745 359.021 360.56 358.041 352.664 359.951C344.767 361.861 337.514 366.576 331.821 373.498L341.139 384.829C344.989 380.148 349.895 376.959 355.235 375.668C360.575 374.376 366.11 375.039 371.14 377.573C376.17 380.106 380.47 384.397 383.495 389.902C386.519 395.407 388.134 401.879 388.134 408.5H401.312Z" fill="#3D5B68"/>
<path d="M331.821 443.502C337.514 450.424 344.767 455.139 352.664 457.049C360.56 458.959 368.745 457.979 376.183 454.232C383.621 450.485 389.979 444.141 394.452 436.001C398.925 427.86 401.312 418.29 401.312 408.5H388.134C388.134 415.121 386.519 421.593 383.495 427.098C380.47 432.603 376.17 436.894 371.14 439.427C366.11 441.961 360.575 442.624 355.235 441.332C349.895 440.041 344.989 436.852 341.139 432.171L331.821 443.502Z" fill="#6682D4"/>
<path opacity="0.6" d="M41.5291 316H256.576V432.5L213.402 480H0V357L41.5291 316Z" fill="#0B1D50"/>
<rect x="57.5664" y="361" width="8.22358" height="86" rx="4.11179" fill="#D9D9D9"/>
<rect x="129.934" y="410" width="8.22359" height="37" rx="4.11179" fill="#D9D9D9"/>
<rect x="93.75" y="396" width="8.22358" height="51" rx="4.11179" fill="#D9D9D9"/>
<rect x="166.117" y="436" width="8.22357" height="11" rx="4.11179" fill="#D9D9D9"/>
<rect x="75.6602" y="421" width="8.22359" height="26" rx="4.11179" fill="#679AB0"/>
<rect x="148.027" y="373" width="8.22359" height="74" rx="4.11179" fill="#6682D4"/>
<rect x="111.844" y="361" width="8.22358" height="86" rx="4.11179" fill="#3D5B68"/>
<rect x="184.211" y="403" width="8.22359" height="44" rx="4.11179" fill="#91D9F8"/>
<ellipse cx="54.5421" cy="330.432" rx="5.20223" ry="6.43172" fill="#E80000"/>
<ellipse cx="70.1475" cy="330.432" rx="5.20223" ry="6.43172" fill="#E4BA05"/>
<ellipse cx="85.753" cy="330.432" rx="5.20223" ry="6.43172" fill="#04FF00"/>
<path opacity="0.6" d="M86.9183 0H537V202.454L446.639 285H0V71.25L86.9183 0Z" fill="#0B1D50"/>
<ellipse cx="100.612" cy="14.4317" rx="9.59621" ry="6.43172" fill="#E80000"/>
<ellipse cx="129.397" cy="14.4317" rx="9.59621" ry="6.43172" fill="#E4BA05"/>
<ellipse cx="158.186" cy="14.4317" rx="9.59621" ry="6.43172" fill="#04FF00"/>
<rect x="191.137" y="109" width="10" height="109.22" rx="5" transform="rotate(-90 191.137 109)" fill="#3D5B68"/>
<rect x="191.137" y="217" width="10" height="253.331" rx="5" transform="rotate(-90 191.137 217)" fill="#3D5B68"/>
<rect x="191.137" y="145" width="10" height="218.441" rx="5" transform="rotate(-90 191.137 145)" fill="#6682D4"/>
<rect x="191.137" y="253" width="10" height="218.441" rx="5" transform="rotate(-90 191.137 253)" fill="#6682D4"/>
<rect x="191.137" y="73" width="10" height="253.331" rx="5" transform="rotate(-90 191.137 73)" fill="#D9D9D9"/>
<rect x="191.137" y="181" width="10" height="177.483" rx="5" transform="rotate(-90 191.137 181)" fill="#D9D9D9"/>
<rect x="91.0156" y="109" width="10" height="75.8475" rx="5" transform="rotate(-90 91.0156 109)" fill="#507788"/>
<rect x="91.0156" y="217" width="10" height="75.8475" rx="5" transform="rotate(-90 91.0156 217)" fill="#507788"/>
<rect x="91.0156" y="145" width="10" height="75.8475" rx="5" transform="rotate(-90 91.0156 145)" fill="#507788"/>
<rect x="91.0156" y="253" width="10" height="75.8475" rx="5" transform="rotate(-90 91.0156 253)" fill="#507788"/>
<rect x="91.0156" y="73" width="10" height="75.8475" rx="5" transform="rotate(-90 91.0156 73)" fill="#507788"/>
<rect x="91.0156" y="181" width="10" height="75.8475" rx="5" transform="rotate(-90 91.0156 181)" fill="#507788"/>
</svg>
