<svg width="40" height="40" viewBox="0 0 40 40" fill="none" xmlns="http://www.w3.org/2000/svg">
<path fill-rule="evenodd" clip-rule="evenodd" d="M4 2C4 1.46957 3.78929 0.960859 3.41421 0.585786C3.03914 0.210714 2.53043 0 2 0C1.46957 0 0.960859 0.210714 0.585786 0.585786C0.210714 0.960859 0 1.46957 0 2V36.4C0 37.3548 0.379285 38.2705 1.05442 38.9456C1.72955 39.6207 2.64522 40 3.6 40H38C38.5304 40 39.0391 39.7893 39.4142 39.4142C39.7893 39.0391 40 38.5304 40 38C40 37.4696 39.7893 36.9609 39.4142 36.5858C39.0391 36.2107 38.5304 36 38 36H4V2ZM39.414 11.414C39.7783 11.0368 39.9799 10.5316 39.9753 10.0072C39.9708 9.4828 39.7605 8.98118 39.3896 8.61036C39.0188 8.23955 38.5172 8.02921 37.9928 8.02465C37.4684 8.02009 36.9632 8.22168 36.586 8.586L24 21.172L17.414 14.586C17.0389 14.2111 16.5303 14.0004 16 14.0004C15.4697 14.0004 14.9611 14.2111 14.586 14.586L6.586 22.586C6.39498 22.7705 6.24262 22.9912 6.1378 23.2352C6.03298 23.4792 5.97781 23.7416 5.9755 24.0072C5.97319 24.2728 6.02379 24.5361 6.12436 24.7819C6.22492 25.0277 6.37342 25.251 6.56121 25.4388C6.749 25.6266 6.9723 25.7751 7.21809 25.8756C7.46388 25.9762 7.72724 26.0268 7.9928 26.0245C8.25836 26.0222 8.5208 25.967 8.76481 25.8622C9.00882 25.7574 9.22951 25.605 9.414 25.414L16 18.828L22.586 25.414C22.9611 25.7889 23.4697 25.9996 24 25.9996C24.5303 25.9996 25.0389 25.7889 25.414 25.414L39.414 11.414Z" fill="white"/>
</svg>
