<svg width="59" height="53" viewBox="0 0 59 53" fill="none" xmlns="http://www.w3.org/2000/svg">
<path d="M31.37 32.1913L49.2437 46.7811C50.664 47.9401 52.8491 47.8482 53.927 46.4669C57.2444 42.1963 59.0036 37.2468 59 32.1943C59.0074 26.1277 56.4743 20.2402 51.8184 15.5028L31.37 32.1913ZM21.8505 33.4244V11.6227C15.7798 12.3421 10.2304 14.8168 6.21794 18.594C2.20542 22.3711 -0.00187323 27.198 1.19283e-06 32.1913C1.19283e-06 43.6805 11.4132 53 25.4922 53C30.994 52.9992 36.3455 51.5392 40.7366 48.8412L21.8505 33.4244ZM48.5482 9.16832C49.9684 8.00932 49.8774 6.20708 48.224 5.27632C43.5801 2.65531 38.302 0.871605 32.743 0.0445037C30.7619 -0.251917 29.134 0.969335 29.134 2.60854V25.0179L48.5482 9.16832Z" fill="#193FAE"/>
</svg>
