<svg width="59" height="53" viewBox="0 0 59 53" fill="none" xmlns="http://www.w3.org/2000/svg">
<path d="M3.27344 1.39844H6.55065V51.6021H3.27344V1.39844Z" fill="#CFD8DC"/>
<path d="M57.3681 33.4611H22.6297C21.8104 33.4611 20.9911 33.1822 20.3357 32.6244L14.2728 27.4645C13.6174 26.9067 13.6174 26.07 14.2728 25.5122L20.3357 20.3524C20.9911 19.7945 21.8104 19.5156 22.6297 19.5156H57.3681C58.3513 19.5156 59.0067 20.0734 59.0067 20.9102V32.0665C59.0067 32.9033 58.3513 33.4611 57.3681 33.4611Z" fill="#3F51B5"/>
<path d="M4.91581 11.172C7.63074 11.172 9.83163 9.29888 9.83163 6.98832C9.83163 4.67777 7.63074 2.80469 4.91581 2.80469C2.20088 2.80469 0 4.67777 0 6.98832C0 9.29888 2.20088 11.172 4.91581 11.172Z" fill="#90A4AE"/>
<path d="M4.91581 30.6876C7.63074 30.6876 9.83163 28.8145 9.83163 26.5039C9.83163 24.1934 7.63074 22.3203 4.91581 22.3203C2.20088 22.3203 0 24.1934 0 26.5039C0 28.8145 2.20088 30.6876 4.91581 30.6876Z" fill="#90A4AE"/>
<path d="M4.91581 50.2266C7.63074 50.2266 9.83163 48.3536 9.83163 46.043C9.83163 43.7325 7.63074 41.8594 4.91581 41.8594C2.20088 41.8594 0 43.7325 0 46.043C0 48.3536 2.20088 50.2266 4.91581 50.2266Z" fill="#90A4AE"/>
<path d="M44.2593 53.0001H22.6297C21.8104 53.0001 20.9911 52.7212 20.3357 52.1634L14.2728 47.0036C13.6174 46.4458 13.6174 45.6091 14.2728 45.0512L20.3357 39.8914C20.9911 39.3336 21.8104 39.0547 22.6297 39.0547H44.2593C45.2425 39.0547 45.8979 39.6125 45.8979 40.4492V51.6056C45.8979 52.4423 45.2425 53.0001 44.2593 53.0001Z" fill="#448AFF"/>
<path d="M45.8979 13.9455H22.6297C21.8104 13.9455 20.9911 13.6665 20.3357 13.1087L14.2728 7.94891C13.6174 7.39109 13.6174 6.55437 14.2728 5.99655L20.3357 0.836727C20.9911 0.278909 21.8104 0 22.6297 0H45.8979C46.8811 0 47.5365 0.557818 47.5365 1.39455V12.5509C47.5365 13.3876 46.8811 13.9455 45.8979 13.9455Z" fill="#00BCD4"/>
</svg>
