<svg width="59" height="53" viewBox="0 0 59 53" fill="none" xmlns="http://www.w3.org/2000/svg">
<path d="M5.36364 53C3.88864 53 2.6264 52.1358 1.57691 50.4074C0.527429 48.679 0.00179242 46.5988 4.54545e-06 44.1667C-0.00178333 41.7346 0.523853 39.6558 1.57691 37.9303C2.62997 36.2049 3.89222 35.3392 5.36364 35.3333H6.06896C6.2692 35.3333 6.48106 35.4069 6.70455 35.5542L18.9068 15.4583C18.8174 15.0903 18.7727 14.7399 18.7727 14.4072V13.25C18.7727 10.8208 19.2984 8.74206 20.3496 7.01367C21.4009 5.28528 22.6631 4.41962 24.1364 4.41667C25.6096 4.41373 26.8727 5.27939 27.9258 7.01367C28.9788 8.74795 29.5036 10.8267 29.5 13.25C29.5 13.3972 29.4553 14.1333 29.3659 15.4583L36.2045 26.7208C36.428 26.5736 36.6408 26.5 36.8428 26.5H38.2508C38.451 26.5 38.6629 26.5736 38.8864 26.7208L48.4068 11.0417C48.3174 10.6736 48.2727 10.3232 48.2727 9.9905V8.83334C48.2727 6.40417 48.7984 4.32539 49.8496 2.59701C50.9009 0.868617 52.1631 0.00295193 53.6364 7.48588e-06C55.1096 -0.00293696 56.3727 0.862728 57.4258 2.59701C58.4788 4.33128 59.0036 6.41006 59 8.83334C58.9964 11.2566 58.4717 13.3369 57.4258 15.0741C56.3799 16.8113 55.1167 17.6755 53.6364 17.6667H52.9337C52.7317 17.6667 52.5189 17.5931 52.2954 17.4458L42.775 33.125C42.8644 33.4931 42.9091 33.8434 42.9091 34.1762V35.3333C42.9091 37.7625 42.3843 39.8427 41.3349 41.5741C40.2854 43.3054 39.0222 44.1696 37.5454 44.1667C36.0687 44.1637 34.8064 43.2995 33.7587 41.5741C32.711 39.8486 32.1854 37.7684 32.1818 35.3333V34.1762C32.1818 33.8434 32.2265 33.4931 32.3159 33.125L25.4773 21.8625C25.2538 22.0097 25.041 22.0833 24.839 22.0833H24.1364C24.047 22.0833 23.6 22.0097 22.7955 21.8625L10.5932 41.9583C10.6826 42.3264 10.7273 42.6768 10.7273 43.0095V44.1667C10.7273 46.5958 10.2025 48.6761 9.15305 50.4074C8.10356 52.1387 6.84043 53.0029 5.36364 53Z" fill="#193FAE"/>
</svg>
