<svg width="59" height="53" viewBox="0 0 59 53" fill="none" xmlns="http://www.w3.org/2000/svg">
<path d="M29.5 0C13.2354 0 0 13.3207 0 29.6897C0 35.9776 1.9547 41.8142 5.28194 46.6201L9.17045 44.0111C6.87288 40.711 5.40809 36.8976 4.90261 32.9002H8.61504V30.5356H4.71413C4.70499 30.2544 4.69911 29.9728 4.69911 29.6895C4.69911 23.7282 6.76359 18.2643 10.2122 13.9779L12.4835 16.2638L14.1447 14.5918L11.7778 12.2098C16.0207 7.85292 21.8424 5.06038 28.3252 4.75797V8.5966H30.6748V4.75823C37.1576 5.06064 42.9793 7.85331 47.2222 12.2102L44.8553 14.5922L46.5164 16.2642L48.7876 13.9783C52.2363 18.2649 54.3009 23.7286 54.3009 29.6902C54.3009 29.9732 54.2951 30.2551 54.2859 30.5358H50.385V32.9005H54.0973C53.5918 36.8977 52.1271 40.7111 49.8297 44.0111L53.7182 46.6201C57.0453 41.8144 59 35.9778 59 29.6899C59 13.3209 45.7645 0.000263097 29.5 0.000263097V0ZM31.5663 8.70065C33.9215 10.0081 36.0052 11.8536 37.6827 14.1179C39.3602 16.3822 40.5942 19.0149 41.305 21.8458L47.8271 19.5379C47.6478 19.2261 47.4607 18.9189 47.2658 18.6167L46.5955 19.2937L42.6315 15.3145L41.8797 14.5596L42.9044 13.5252C39.6924 10.8071 35.7414 9.12579 31.5662 8.70052L31.5663 8.70065ZM51.9487 20.5035L29.0625 28.4645C27.4774 28.6831 26.2367 30.0674 26.2367 31.718C26.2367 33.5178 27.7117 35.0023 29.5 35.0023C30.3837 35.0023 31.1904 34.6392 31.7808 34.0554L51.9487 20.5035ZM49.7933 24.7496L41.8683 30.099C41.556 32.9047 40.7408 35.6111 39.4713 38.0563C38.2019 40.5014 36.5043 42.635 34.4803 44.3294H44.4081C46.8615 41.8123 48.6464 38.7145 49.5984 35.3211H48.0981V28.4222H50.32C50.2523 27.1847 50.0761 25.9558 49.7933 24.7496ZM12.792 48.2707V53H46.208V48.2707H12.792Z" fill="#193FAE"/>
</svg>
