<svg width="653" height="480" viewBox="0 0 653 480" fill="none" xmlns="http://www.w3.org/2000/svg">
<path opacity="0.6" d="M391.5 316H653V432.5L600.5 480H341V357L391.5 316Z" fill="black"/>
<ellipse cx="407.326" cy="330.432" rx="6.32599" ry="6.43172" fill="#E80000"/>
<ellipse cx="426.303" cy="330.432" rx="6.32599" ry="6.43172" fill="#E4BA05"/>
<ellipse cx="445.279" cy="330.432" rx="6.32599" ry="6.43172" fill="#04FF00"/>
<rect width="10" height="44" rx="5" transform="matrix(0 -1 -1 0 563 411.109)" fill="#D9D9D9"/>
<rect width="10" height="74" rx="5" transform="matrix(0 -1 -1 0 593 385.109)" fill="#6682D4"/>
<rect width="10" height="64" rx="5" transform="matrix(0 -1 -1 0 583 437.109)" fill="#3D5B68"/>
<path d="M488 408.5C488 435.838 465.838 458 438.5 458C411.162 458 389 435.838 389 408.5C389 381.162 411.162 359 438.5 359C465.838 359 488 381.162 488 408.5ZM405.025 408.5C405.025 426.988 420.012 441.975 438.5 441.975C456.988 441.975 471.975 426.988 471.975 408.5C471.975 390.012 456.988 375.025 438.5 375.025C420.012 375.025 405.025 390.012 405.025 408.5Z" fill="#D9D9D9"/>
<path d="M488 408.5C488 398.71 485.097 389.14 479.658 380.999C474.219 372.859 466.488 366.515 457.443 362.768C448.398 359.021 438.445 358.041 428.843 359.951C419.241 361.861 410.421 366.576 403.498 373.498L414.829 384.829C419.511 380.148 425.476 376.959 431.969 375.668C438.463 374.376 445.194 375.039 451.31 377.573C457.427 380.106 462.655 384.397 466.334 389.902C470.012 395.407 471.975 401.879 471.975 408.5H488Z" fill="#3D5B68"/>
<path d="M403.498 443.502C410.421 450.424 419.241 455.139 428.843 457.049C438.445 458.959 448.398 457.979 457.443 454.232C466.488 450.485 474.219 444.141 479.658 436.001C485.097 427.86 488 418.29 488 408.5H471.975C471.975 415.121 470.012 421.593 466.334 427.098C462.655 432.603 457.427 436.894 451.31 439.427C445.194 441.961 438.463 442.624 431.969 441.332C425.476 440.041 419.511 436.852 414.829 432.171L403.498 443.502Z" fill="#6682D4"/>
<path opacity="0.6" d="M50.5 316H312V432.5L259.5 480H0V357L50.5 316Z" fill="black"/>
<rect x="70" y="361" width="10" height="86" rx="5" fill="#D9D9D9"/>
<rect x="158" y="410" width="10" height="37" rx="5" fill="#D9D9D9"/>
<rect x="114" y="396" width="10" height="51" rx="5" fill="#D9D9D9"/>
<rect x="202" y="436" width="10" height="11" rx="5" fill="#D9D9D9"/>
<rect x="92" y="421" width="10" height="26" rx="5" fill="#679AB0"/>
<rect x="180" y="373" width="10" height="74" rx="5" fill="#6682D4"/>
<rect x="136" y="361" width="10" height="86" rx="5" fill="#3D5B68"/>
<rect x="224" y="403" width="10" height="44" rx="5" fill="#91D9F8"/>
<ellipse cx="66.326" cy="330.432" rx="6.32599" ry="6.43172" fill="#E80000"/>
<ellipse cx="85.3026" cy="330.432" rx="6.32599" ry="6.43172" fill="#E4BA05"/>
<ellipse cx="104.279" cy="330.432" rx="6.32599" ry="6.43172" fill="#04FF00"/>
<path opacity="0.6" d="M105.694 0H653V202.454L543.12 285H0V71.25L105.694 0Z" fill="black"/>
<ellipse cx="122.349" cy="14.4317" rx="11.6691" ry="6.43172" fill="#E80000"/>
<ellipse cx="157.357" cy="14.4317" rx="11.6691" ry="6.43172" fill="#E4BA05"/>
<ellipse cx="192.357" cy="14.4317" rx="11.6691" ry="6.43172" fill="#04FF00"/>
<rect x="232.422" y="109" width="10" height="132.814" rx="5" transform="rotate(-90 232.422 109)" fill="#3D5B68"/>
<rect x="232.422" y="217" width="10" height="308.054" rx="5" transform="rotate(-90 232.422 217)" fill="#3D5B68"/>
<rect x="232.422" y="145" width="10" height="265.627" rx="5" transform="rotate(-90 232.422 145)" fill="#6682D4"/>
<rect x="232.422" y="253" width="10" height="265.627" rx="5" transform="rotate(-90 232.422 253)" fill="#6682D4"/>
<rect x="232.422" y="73" width="10" height="308.054" rx="5" transform="rotate(-90 232.422 73)" fill="#D9D9D9"/>
<rect x="232.422" y="181" width="10" height="215.822" rx="5" transform="rotate(-90 232.422 181)" fill="#D9D9D9"/>
<rect x="110.68" y="109" width="10" height="92.2316" rx="5" transform="rotate(-90 110.68 109)" fill="#507788"/>
<rect x="110.68" y="217" width="10" height="92.2316" rx="5" transform="rotate(-90 110.68 217)" fill="#507788"/>
<rect x="110.68" y="145" width="10" height="92.2316" rx="5" transform="rotate(-90 110.68 145)" fill="#507788"/>
<rect x="110.68" y="253" width="10" height="92.2316" rx="5" transform="rotate(-90 110.68 253)" fill="#507788"/>
<rect x="110.68" y="73" width="10" height="92.2316" rx="5" transform="rotate(-90 110.68 73)" fill="#507788"/>
<rect x="110.68" y="181" width="10" height="92.2316" rx="5" transform="rotate(-90 110.68 181)" fill="#507788"/>
</svg>
