<svg width="653" height="480" viewBox="0 0 653 480" fill="none" xmlns="http://www.w3.org/2000/svg">
<path opacity="0.6" d="M391.5 316H653V432.5L600.5 480H341V357L391.5 316Z" fill="black"/>
<ellipse cx="407.326" cy="330.432" rx="6.32599" ry="6.43172" fill="#E80000"/>
<ellipse cx="426.303" cy="330.432" rx="6.32599" ry="6.43172" fill="#E4BA05"/>
<ellipse cx="445.279" cy="330.432" rx="6.32599" ry="6.43172" fill="#04FF00"/>
<rect width="10" height="74" rx="5" transform="matrix(0 -1 -1 0 593 411)" fill="#D9D9D9"/>
<rect width="10" height="47" rx="5" transform="matrix(0 -1 -1 0 566 385)" fill="#6682D4"/>
<rect width="10" height="21" rx="5" transform="matrix(0 -1 -1 0 540 437)" fill="#3D5B68"/>
<path d="M402.245 374.798C420.856 354.773 452.177 353.627 472.202 372.238C492.227 390.85 493.373 422.17 474.761 442.195C456.15 462.22 424.829 463.366 404.804 444.754C384.78 426.143 383.634 394.822 402.245 374.798ZM463.023 431.286C475.61 417.744 474.835 396.562 461.293 383.976C447.75 371.39 426.569 372.165 413.983 385.707C401.397 399.249 402.172 420.43 415.714 433.017C429.256 445.603 450.437 444.828 463.023 431.286Z" fill="#D9D9D9"/>
<path d="M402.245 374.798C395.58 381.969 391.191 390.955 389.634 400.621C388.076 410.286 389.42 420.197 393.494 429.098C397.569 438 404.192 445.494 412.526 450.632C420.859 455.77 430.529 458.321 440.313 457.963L439.727 441.949C433.111 442.191 426.571 440.466 420.935 436.991C415.299 433.517 410.821 428.449 408.065 422.429C405.309 416.409 404.401 409.707 405.454 403.17C406.508 396.634 409.476 390.557 413.983 385.707L402.245 374.798Z" fill="#3D5B68"/>
<path d="M487.97 406.687C487.612 396.903 484.361 387.445 478.628 379.509C472.895 371.573 464.937 365.516 455.761 362.102C446.586 358.689 436.604 358.073 427.078 360.333C417.552 362.593 408.91 367.626 402.245 374.798L413.983 385.707C418.49 380.857 424.334 377.453 430.776 375.925C437.219 374.397 443.969 374.813 450.174 377.121C456.38 379.43 461.761 383.526 465.638 388.893C469.516 394.26 471.714 400.656 471.956 407.273L487.97 406.687Z" fill="#6682D4"/>
<path opacity="0.6" d="M50.5 316H312V432.5L259.5 480H0V357L50.5 316Z" fill="black"/>
<rect x="70" y="383" width="10" height="64" rx="5" fill="#D9D9D9"/>
<rect x="158" y="403" width="10" height="44" rx="5" fill="#D9D9D9"/>
<rect x="114" y="361" width="10" height="86" rx="5" fill="#D9D9D9"/>
<rect x="202" y="426" width="10" height="21" rx="5" fill="#D9D9D9"/>
<rect x="92" y="383" width="10" height="64" rx="5" fill="#679AB0"/>
<rect x="180" y="373" width="10" height="74" rx="5" fill="#6682D4"/>
<rect x="136" y="383" width="10" height="64" rx="5" fill="#3D5B68"/>
<rect x="224" y="361" width="10" height="86" rx="5" fill="#91D9F8"/>
<ellipse cx="66.326" cy="330.432" rx="6.32599" ry="6.43172" fill="#E80000"/>
<ellipse cx="85.3026" cy="330.432" rx="6.32599" ry="6.43172" fill="#E4BA05"/>
<ellipse cx="104.279" cy="330.432" rx="6.32599" ry="6.43172" fill="#04FF00"/>
<path opacity="0.6" d="M105.694 0H653V202.454L543.12 285H0V71.25L105.694 0Z" fill="black"/>
<ellipse cx="122.349" cy="14.4317" rx="11.6691" ry="6.43172" fill="#E80000"/>
<ellipse cx="157.357" cy="14.4317" rx="11.6691" ry="6.43172" fill="#E4BA05"/>
<ellipse cx="192.357" cy="14.4317" rx="11.6691" ry="6.43172" fill="#04FF00"/>
<rect x="232.422" y="109" width="10" height="132.814" rx="5" transform="rotate(-90 232.422 109)" fill="#3D5B68"/>
<rect x="232.422" y="217" width="10" height="308.054" rx="5" transform="rotate(-90 232.422 217)" fill="#3D5B68"/>
<rect x="232.422" y="145" width="10" height="265.627" rx="5" transform="rotate(-90 232.422 145)" fill="#6682D4"/>
<rect x="232.422" y="253" width="10" height="265.627" rx="5" transform="rotate(-90 232.422 253)" fill="#6682D4"/>
<rect x="232.422" y="73" width="10" height="308.054" rx="5" transform="rotate(-90 232.422 73)" fill="#D9D9D9"/>
<rect x="232.422" y="181" width="10" height="215.822" rx="5" transform="rotate(-90 232.422 181)" fill="#D9D9D9"/>
<rect x="110.68" y="109" width="10" height="92.2316" rx="5" transform="rotate(-90 110.68 109)" fill="#507788"/>
<rect x="110.68" y="217" width="10" height="92.2316" rx="5" transform="rotate(-90 110.68 217)" fill="#507788"/>
<rect x="110.68" y="145" width="10" height="92.2316" rx="5" transform="rotate(-90 110.68 145)" fill="#507788"/>
<rect x="110.68" y="253" width="10" height="92.2316" rx="5" transform="rotate(-90 110.68 253)" fill="#507788"/>
<rect x="110.68" y="73" width="10" height="92.2316" rx="5" transform="rotate(-90 110.68 73)" fill="#507788"/>
<rect x="110.68" y="181" width="10" height="92.2316" rx="5" transform="rotate(-90 110.68 181)" fill="#507788"/>
</svg>
