<svg width="40" height="40" viewBox="0 0 40 40" fill="none" xmlns="http://www.w3.org/2000/svg">
<path d="M36.0976 30C37.1326 30 38.1252 29.5786 38.857 28.8284C39.5889 28.0783 40 27.0609 40 26V4C40 2.93913 39.5889 1.92172 38.857 1.17157C38.1252 0.421427 37.1326 0 36.0976 0H15.5317C16.2146 1.22 16.5854 2.6 16.5854 4H36.0976V26H18.5366V30M26.3415 10V14H14.6341V40H10.7317V28H6.82927V40H2.92683V24H0V14C0 12.9391 0.411148 11.9217 1.143 11.1716C1.87485 10.4214 2.86745 10 3.90244 10H26.3415ZM12.6829 4C12.6829 5.06087 12.2718 6.07828 11.5399 6.82843C10.8081 7.57857 9.81548 8 8.78049 8C7.7455 8 6.7529 7.57857 6.02105 6.82843C5.2892 6.07828 4.87805 5.06087 4.87805 4C4.87805 2.93913 5.2892 1.92172 6.02105 1.17157C6.7529 0.421427 7.7455 0 8.78049 0C9.81548 0 10.8081 0.421427 11.5399 1.17157C12.2718 1.92172 12.6829 2.93913 12.6829 4Z" fill="white"/>
</svg>
