<svg width="597" height="512" viewBox="0 0 597 512" fill="none" xmlns="http://www.w3.org/2000/svg">
<g clip-path="url(#clip0_520_259)">
<g filter="url(#filter0_b_520_259)">
<rect x="280.21" y="311.345" width="316.534" height="199.78" rx="17.0766" fill="white" fill-opacity="0.2"/>
<rect x="543.294" y="393.512" width="9.66668" height="77" rx="4.83334" transform="rotate(90 543.294 393.512)" fill="#95ABBC"/>
<rect x="554.464" y="420.255" width="9.66668" height="88.17" rx="4.83334" transform="rotate(90 554.464 420.255)" fill="#95ABBC"/>
<rect x="548.124" y="446.999" width="9.66668" height="81.83" rx="4.83334" transform="rotate(90 548.124 446.999)" fill="#95ABBC"/>
<g clip-path="url(#clip1_520_259)">
<path d="M418.741 424.481C418.741 451.126 397.194 472.696 370.651 472.696C344.109 472.696 322.562 451.126 322.562 424.481C322.562 397.836 344.109 376.266 370.651 376.266C397.194 376.266 418.741 397.836 418.741 424.481Z" stroke="#1C3D5B" stroke-width="16.183"/>
<mask id="mask0_520_259" style="mask-type:alpha" maskUnits="userSpaceOnUse" x="371" y="342" width="62" height="110">
<path d="M371 428.5L433 451.5L426 342.5L381.5 365.5L371 428.5Z" fill="#C4C4C4"/>
</mask>
<g mask="url(#mask0_520_259)">
<path d="M346.006 465.856C323.177 452.221 315.683 422.633 329.271 399.769C342.86 376.906 372.382 369.427 395.211 383.062C418.04 396.698 425.534 426.285 411.946 449.149C398.358 472.013 368.835 479.492 346.006 465.856Z" stroke="#1B45BF" stroke-width="16.183"/>
</g>
<mask id="mask1_520_259" style="mask-type:alpha" maskUnits="userSpaceOnUse" x="284" y="359" width="99" height="122">
<path d="M368.726 428.124L284 480.5L328.5 359.5L382.591 365.778L368.726 428.124Z" fill="#C4C4C4"/>
</mask>
<g mask="url(#mask1_520_259)">
<path d="M377.907 472.123C404.181 468.033 422.213 443.406 418.179 417.117C414.145 390.828 389.574 372.835 363.3 376.925C337.025 381.016 318.993 405.642 323.027 431.931C327.061 458.22 351.632 476.214 377.907 472.123Z" stroke="#0DBBFC" stroke-width="16.183"/>
</g>
</g>
</g>
<ellipse cx="305.466" cy="332.292" rx="5.8" ry="6.04167" fill="#FC5B00"/>
<ellipse cx="328.666" cy="332.291" rx="5.8" ry="6.04167" fill="#ECAA00"/>
<ellipse cx="351.866" cy="332.291" rx="5.8" ry="6.04167" fill="#009D10"/>
<g filter="url(#filter1_b_520_259)">
<g clip-path="url(#clip2_520_259)">
<rect x="-0.000244141" y="-0.000244141" width="596.745" height="280.211" rx="18.1618" fill="white" fill-opacity="0.18"/>
<rect x="100.026" y="82.3844" width="14.2305" height="65.4601" rx="7.11523" transform="rotate(90 100.026 82.3844)" fill="#95ABBC"/>
<rect x="383.31" y="82.2982" width="14.403" height="266" rx="7.20149" transform="rotate(90 383.31 82.2982)" fill="#8FB6D5"/>
<path d="M402.633 95.2572L406.852 86.0443H401.247V84.9754H408.104V85.8755L403.913 95.2572H402.633ZM416.339 90.1022C416.339 90.9367 416.276 91.6822 416.15 92.3386C416.023 92.995 415.824 93.5506 415.552 94.0053C415.28 94.4601 414.928 94.8071 414.497 95.0462C414.066 95.2806 413.547 95.3978 412.943 95.3978C412.178 95.3978 411.546 95.1892 411.044 94.7719C410.547 94.3546 410.174 93.7522 409.926 92.9645C409.682 92.1721 409.56 91.218 409.56 90.1022C409.56 89.0051 409.67 88.0627 409.89 87.275C410.116 86.4827 410.477 85.8755 410.974 85.4536C411.47 85.0269 412.127 84.8136 412.943 84.8136C413.716 84.8136 414.354 85.0246 414.856 85.4465C415.357 85.8638 415.73 86.4686 415.974 87.261C416.218 88.0486 416.339 88.9957 416.339 90.1022ZM410.734 90.1022C410.734 91.0586 410.807 91.8557 410.952 92.4933C411.098 93.1309 411.332 93.6092 411.656 93.928C411.984 94.2421 412.413 94.3992 412.943 94.3992C413.472 94.3992 413.899 94.2421 414.223 93.928C414.551 93.6139 414.788 93.138 414.933 92.5003C415.083 91.8627 415.158 91.0633 415.158 90.1022C415.158 89.1598 415.085 88.3722 414.94 87.7392C414.795 87.1016 414.56 86.6234 414.237 86.3045C413.913 85.981 413.482 85.8193 412.943 85.8193C412.403 85.8193 411.972 85.981 411.649 86.3045C411.325 86.6234 411.091 87.1016 410.945 87.7392C410.805 88.3722 410.734 89.1598 410.734 90.1022ZM419.884 84.8277C420.587 84.8277 421.119 85.109 421.48 85.6716C421.846 86.2295 422.029 87.0195 422.029 88.0416C422.029 89.0637 421.853 89.8607 421.501 90.4327C421.15 91 420.611 91.2837 419.884 91.2837C419.209 91.2837 418.691 91 418.33 90.4327C417.973 89.8607 417.795 89.0637 417.795 88.0416C417.795 87.0195 417.966 86.2295 418.309 85.6716C418.651 85.109 419.176 84.8277 419.884 84.8277ZM419.884 85.6646C419.504 85.6646 419.225 85.8638 419.047 86.2623C418.869 86.6562 418.78 87.2493 418.78 88.0416C418.78 88.834 418.869 89.4317 419.047 89.835C419.225 90.2382 419.504 90.4398 419.884 90.4398C420.278 90.4398 420.571 90.2382 420.763 89.835C420.955 89.4317 421.051 88.834 421.051 88.0416C421.051 87.254 420.955 86.6609 420.763 86.2623C420.575 85.8638 420.282 85.6646 419.884 85.6646ZM426.396 84.9754L420.693 95.2572H419.666L425.369 84.9754H426.396ZM426.122 88.9488C426.821 88.9488 427.353 89.2301 427.718 89.7928C428.084 90.3507 428.267 91.1407 428.267 92.1628C428.267 93.1802 428.091 93.9749 427.739 94.5469C427.388 95.1142 426.849 95.3978 426.122 95.3978C425.442 95.3978 424.924 95.1142 424.568 94.5469C424.211 93.9749 424.033 93.1802 424.033 92.1628C424.033 91.1407 424.202 90.3507 424.54 89.7928C424.882 89.2301 425.409 88.9488 426.122 88.9488ZM426.122 89.7928C425.742 89.7928 425.463 89.9897 425.285 90.3835C425.107 90.7773 425.018 91.3704 425.018 92.1628C425.018 92.9551 425.107 93.5529 425.285 93.9561C425.463 94.3546 425.742 94.5539 426.122 94.5539C426.516 94.5539 426.809 94.357 427.001 93.9631C427.193 93.5646 427.289 92.9645 427.289 92.1628C427.289 91.3751 427.193 90.7844 427.001 90.3905C426.813 89.992 426.52 89.7928 426.122 89.7928Z" fill="white"/>
<rect x="100.026" y="129.554" width="14.2305" height="65.4601" rx="7.11523" transform="rotate(90 100.026 129.554)" fill="#95ABBC"/>
<rect x="345.31" y="129.828" width="13.6828" height="228" rx="6.84141" transform="rotate(90 345.31 129.828)" fill="#0DBBFC"/>
<path d="M363.409 137.391C363.409 136.773 363.451 136.168 363.536 135.577C363.625 134.986 363.772 134.438 363.979 133.931C364.185 133.42 364.466 132.973 364.823 132.588C365.179 132.204 365.622 131.904 366.152 131.688C366.686 131.468 367.326 131.357 368.072 131.357C368.283 131.357 368.51 131.369 368.754 131.393C368.998 131.411 369.199 131.444 369.359 131.491V132.497C369.185 132.436 368.986 132.391 368.761 132.363C368.541 132.335 368.318 132.321 368.093 132.321C367.221 132.321 366.534 132.511 366.032 132.891C365.535 133.27 365.177 133.786 364.956 134.438C364.736 135.085 364.609 135.814 364.576 136.625H364.654C364.799 136.39 364.984 136.179 365.209 135.992C365.434 135.8 365.706 135.647 366.025 135.535C366.349 135.422 366.724 135.366 367.15 135.366C367.751 135.366 368.273 135.488 368.719 135.732C369.169 135.976 369.516 136.33 369.76 136.794C370.008 137.258 370.132 137.82 370.132 138.482C370.132 139.189 370.001 139.801 369.738 140.317C369.476 140.833 369.101 141.231 368.613 141.513C368.13 141.789 367.554 141.928 366.883 141.928C366.382 141.928 365.92 141.831 365.498 141.639C365.076 141.447 364.708 141.161 364.394 140.781C364.084 140.401 363.843 139.93 363.669 139.368C363.496 138.8 363.409 138.142 363.409 137.391ZM366.869 140.943C367.507 140.943 368.018 140.739 368.402 140.331C368.787 139.923 368.979 139.307 368.979 138.482C368.979 137.806 368.808 137.272 368.466 136.878C368.123 136.484 367.608 136.287 366.918 136.287C366.45 136.287 366.042 136.386 365.695 136.583C365.348 136.775 365.078 137.019 364.886 137.314C364.694 137.609 364.598 137.91 364.598 138.214C364.598 138.524 364.642 138.838 364.731 139.157C364.825 139.475 364.966 139.771 365.153 140.043C365.341 140.315 365.577 140.533 365.863 140.697C366.149 140.861 366.485 140.943 366.869 140.943ZM378.339 136.632C378.339 137.466 378.276 138.212 378.15 138.868C378.023 139.525 377.824 140.08 377.552 140.535C377.28 140.99 376.928 141.337 376.497 141.576C376.066 141.81 375.547 141.928 374.943 141.928C374.178 141.928 373.546 141.719 373.044 141.302C372.547 140.884 372.174 140.282 371.926 139.494C371.682 138.702 371.56 137.748 371.56 136.632C371.56 135.535 371.67 134.592 371.89 133.805C372.116 133.012 372.477 132.405 372.974 131.983C373.47 131.557 374.127 131.343 374.943 131.343C375.716 131.343 376.354 131.554 376.856 131.976C377.357 132.394 377.73 132.998 377.974 133.791C378.218 134.578 378.339 135.525 378.339 136.632ZM372.734 136.632C372.734 137.588 372.807 138.385 372.952 139.023C373.098 139.661 373.332 140.139 373.656 140.458C373.984 140.772 374.413 140.929 374.943 140.929C375.472 140.929 375.899 140.772 376.223 140.458C376.551 140.144 376.788 139.668 376.933 139.03C377.083 138.392 377.158 137.593 377.158 136.632C377.158 135.69 377.085 134.902 376.94 134.269C376.795 133.631 376.56 133.153 376.237 132.834C375.913 132.511 375.482 132.349 374.943 132.349C374.403 132.349 373.972 132.511 373.649 132.834C373.325 133.153 373.091 133.631 372.945 134.269C372.805 134.902 372.734 135.69 372.734 136.632ZM381.884 131.357C382.587 131.357 383.119 131.639 383.48 132.201C383.846 132.759 384.029 133.549 384.029 134.571C384.029 135.593 383.853 136.39 383.501 136.962C383.15 137.53 382.611 137.813 381.884 137.813C381.209 137.813 380.691 137.53 380.33 136.962C379.973 136.39 379.795 135.593 379.795 134.571C379.795 133.549 379.966 132.759 380.309 132.201C380.651 131.639 381.176 131.357 381.884 131.357ZM381.884 132.194C381.504 132.194 381.225 132.394 381.047 132.792C380.869 133.186 380.78 133.779 380.78 134.571C380.78 135.364 380.869 135.961 381.047 136.365C381.225 136.768 381.504 136.97 381.884 136.97C382.278 136.97 382.571 136.768 382.763 136.365C382.955 135.961 383.051 135.364 383.051 134.571C383.051 133.784 382.955 133.191 382.763 132.792C382.575 132.394 382.282 132.194 381.884 132.194ZM388.396 131.505L382.693 141.787H381.666L387.369 131.505H388.396ZM388.122 135.479C388.821 135.479 389.353 135.76 389.718 136.322C390.084 136.88 390.267 137.67 390.267 138.693C390.267 139.71 390.091 140.505 389.739 141.077C389.388 141.644 388.849 141.928 388.122 141.928C387.442 141.928 386.924 141.644 386.568 141.077C386.211 140.505 386.033 139.71 386.033 138.693C386.033 137.67 386.202 136.88 386.54 136.322C386.882 135.76 387.409 135.479 388.122 135.479ZM388.122 136.322C387.742 136.322 387.463 136.519 387.285 136.913C387.107 137.307 387.018 137.9 387.018 138.693C387.018 139.485 387.107 140.083 387.285 140.486C387.463 140.884 387.742 141.084 388.122 141.084C388.516 141.084 388.809 140.887 389.001 140.493C389.193 140.094 389.289 139.494 389.289 138.693C389.289 137.905 389.193 137.314 389.001 136.92C388.813 136.522 388.52 136.322 388.122 136.322Z" fill="white"/>
<rect x="100.026" y="176.364" width="14.2305" height="65.4601" rx="7.11523" transform="rotate(90 100.026 176.364)" fill="#95ABBC"/>
<rect x="459.31" y="176.277" width="14.403" height="342" rx="7.20149" transform="rotate(90 459.31 176.277)" fill="white"/>
<path d="M484.055 182.696C484.055 183.32 484.01 183.927 483.921 184.518C483.837 185.108 483.689 185.659 483.478 186.17C483.272 186.681 482.991 187.129 482.634 187.513C482.278 187.898 481.83 188.2 481.291 188.421C480.757 188.636 480.117 188.744 479.371 188.744C479.17 188.744 478.94 188.73 478.682 188.702C478.424 188.679 478.213 188.643 478.049 188.597V187.584C478.223 187.645 478.426 187.694 478.661 187.731C478.895 187.764 479.125 187.781 479.35 187.781C480.227 187.781 480.916 187.593 481.418 187.218C481.919 186.838 482.28 186.325 482.501 185.678C482.721 185.026 482.845 184.295 482.873 183.484H482.789C482.648 183.709 482.463 183.917 482.233 184.11C482.008 184.297 481.734 184.45 481.411 184.567C481.087 184.679 480.71 184.736 480.278 184.736C479.683 184.736 479.163 184.614 478.717 184.37C478.276 184.126 477.932 183.772 477.683 183.308C477.44 182.844 477.318 182.283 477.318 181.627C477.318 180.919 477.451 180.307 477.718 179.792C477.99 179.271 478.37 178.87 478.858 178.589C479.345 178.308 479.92 178.167 480.581 178.167C481.087 178.167 481.551 178.263 481.973 178.455C482.395 178.648 482.761 178.936 483.07 179.32C483.384 179.7 483.626 180.171 483.795 180.734C483.968 181.297 484.055 181.951 484.055 182.696ZM480.581 179.159C479.957 179.159 479.451 179.363 479.062 179.77C478.677 180.178 478.485 180.793 478.485 181.613C478.485 182.293 478.651 182.83 478.984 183.224C479.317 183.617 479.831 183.814 480.525 183.814C481.003 183.814 481.415 183.718 481.762 183.526C482.114 183.334 482.384 183.09 482.571 182.795C482.763 182.499 482.859 182.197 482.859 181.887C482.859 181.578 482.813 181.264 482.719 180.945C482.63 180.626 482.491 180.333 482.304 180.066C482.116 179.794 481.88 179.576 481.594 179.412C481.308 179.243 480.97 179.159 480.581 179.159ZM492.339 183.442C492.339 184.276 492.276 185.022 492.15 185.678C492.023 186.334 491.824 186.89 491.552 187.345C491.28 187.799 490.928 188.146 490.497 188.386C490.066 188.62 489.547 188.737 488.943 188.737C488.178 188.737 487.546 188.529 487.044 188.111C486.547 187.694 486.174 187.092 485.926 186.304C485.682 185.511 485.56 184.557 485.56 183.442C485.56 182.344 485.67 181.402 485.89 180.614C486.116 179.822 486.477 179.215 486.974 178.793C487.47 178.366 488.127 178.153 488.943 178.153C489.716 178.153 490.354 178.364 490.856 178.786C491.357 179.203 491.73 179.808 491.974 180.6C492.218 181.388 492.339 182.335 492.339 183.442ZM486.734 183.442C486.734 184.398 486.807 185.195 486.952 185.833C487.098 186.47 487.332 186.949 487.656 187.267C487.984 187.581 488.413 187.739 488.943 187.739C489.472 187.739 489.899 187.581 490.223 187.267C490.551 186.953 490.788 186.477 490.933 185.84C491.083 185.202 491.158 184.403 491.158 183.442C491.158 182.499 491.085 181.711 490.94 181.079C490.795 180.441 490.56 179.963 490.237 179.644C489.913 179.32 489.482 179.159 488.943 179.159C488.403 179.159 487.972 179.32 487.649 179.644C487.325 179.963 487.091 180.441 486.945 181.079C486.805 181.711 486.734 182.499 486.734 183.442ZM495.884 178.167C496.587 178.167 497.119 178.448 497.48 179.011C497.846 179.569 498.029 180.359 498.029 181.381C498.029 182.403 497.853 183.2 497.501 183.772C497.15 184.339 496.611 184.623 495.884 184.623C495.209 184.623 494.691 184.339 494.33 183.772C493.973 183.2 493.795 182.403 493.795 181.381C493.795 180.359 493.966 179.569 494.309 179.011C494.651 178.448 495.176 178.167 495.884 178.167ZM495.884 179.004C495.504 179.004 495.225 179.203 495.047 179.602C494.869 179.996 494.78 180.589 494.78 181.381C494.78 182.173 494.869 182.771 495.047 183.174C495.225 183.578 495.504 183.779 495.884 183.779C496.278 183.779 496.571 183.578 496.763 183.174C496.955 182.771 497.051 182.173 497.051 181.381C497.051 180.593 496.955 180 496.763 179.602C496.575 179.203 496.282 179.004 495.884 179.004ZM502.396 178.315L496.693 188.597H495.666L501.369 178.315H502.396ZM502.122 182.288C502.821 182.288 503.353 182.569 503.718 183.132C504.084 183.69 504.267 184.48 504.267 185.502C504.267 186.52 504.091 187.314 503.739 187.886C503.388 188.454 502.849 188.737 502.122 188.737C501.442 188.737 500.924 188.454 500.568 187.886C500.211 187.314 500.033 186.52 500.033 185.502C500.033 184.48 500.202 183.69 500.54 183.132C500.882 182.569 501.409 182.288 502.122 182.288ZM502.122 183.132C501.742 183.132 501.463 183.329 501.285 183.723C501.107 184.117 501.018 184.71 501.018 185.502C501.018 186.294 501.107 186.892 501.285 187.295C501.463 187.694 501.742 187.893 502.122 187.893C502.516 187.893 502.809 187.696 503.001 187.302C503.193 186.904 503.289 186.304 503.289 185.502C503.289 184.714 503.193 184.124 503.001 183.73C502.813 183.331 502.52 183.132 502.122 183.132Z" fill="white"/>
<rect x="100.026" y="223.173" width="14.2305" height="65.4601" rx="7.11523" transform="rotate(90 100.026 223.173)" fill="#95ABBC"/>
<rect x="497.31" y="223.447" width="13.6828" height="380" rx="6.84141" transform="rotate(90 497.31 223.447)" fill="#2D9CDB"/>
<path d="M519.65 235.406H518.51V228.12C518.51 227.844 518.51 227.607 518.51 227.41C518.515 227.208 518.52 227.025 518.525 226.861C518.534 226.693 518.546 226.521 518.56 226.348C518.414 226.498 518.278 226.627 518.152 226.735C518.025 226.838 517.868 226.967 517.681 227.122L516.506 228.064L515.894 227.269L518.679 225.124H519.65V235.406ZM530.339 230.251C530.339 231.086 530.276 231.831 530.15 232.488C530.023 233.144 529.824 233.699 529.552 234.154C529.28 234.609 528.928 234.956 528.497 235.195C528.066 235.43 527.547 235.547 526.943 235.547C526.178 235.547 525.546 235.338 525.044 234.921C524.547 234.504 524.174 233.901 523.926 233.113C523.682 232.321 523.56 231.367 523.56 230.251C523.56 229.154 523.67 228.212 523.89 227.424C524.116 226.632 524.477 226.024 524.974 225.603C525.47 225.176 526.127 224.963 526.943 224.963C527.716 224.963 528.354 225.174 528.856 225.595C529.357 226.013 529.73 226.618 529.974 227.41C530.218 228.198 530.339 229.145 530.339 230.251ZM524.734 230.251C524.734 231.208 524.807 232.005 524.952 232.642C525.098 233.28 525.332 233.758 525.656 234.077C525.984 234.391 526.413 234.548 526.943 234.548C527.472 234.548 527.899 234.391 528.223 234.077C528.551 233.763 528.788 233.287 528.933 232.649C529.083 232.012 529.158 231.212 529.158 230.251C529.158 229.309 529.085 228.521 528.94 227.888C528.795 227.251 528.56 226.772 528.237 226.453C527.913 226.13 527.482 225.968 526.943 225.968C526.403 225.968 525.972 226.13 525.649 226.453C525.325 226.772 525.091 227.251 524.945 227.888C524.805 228.521 524.734 229.309 524.734 230.251ZM538.582 230.251C538.582 231.086 538.518 231.831 538.392 232.488C538.265 233.144 538.066 233.699 537.794 234.154C537.522 234.609 537.171 234.956 536.739 235.195C536.308 235.43 535.79 235.547 535.185 235.547C534.421 235.547 533.788 235.338 533.286 234.921C532.789 234.504 532.416 233.901 532.168 233.113C531.924 232.321 531.802 231.367 531.802 230.251C531.802 229.154 531.912 228.212 532.133 227.424C532.358 226.632 532.719 226.024 533.216 225.603C533.713 225.176 534.369 224.963 535.185 224.963C535.959 224.963 536.596 225.174 537.098 225.595C537.6 226.013 537.972 226.618 538.216 227.41C538.46 228.198 538.582 229.145 538.582 230.251ZM532.977 230.251C532.977 231.208 533.049 232.005 533.195 232.642C533.34 233.28 533.575 233.758 533.898 234.077C534.226 234.391 534.655 234.548 535.185 234.548C535.715 234.548 536.141 234.391 536.465 234.077C536.793 233.763 537.03 233.287 537.175 232.649C537.325 232.012 537.4 231.212 537.4 230.251C537.4 229.309 537.328 228.521 537.182 227.888C537.037 227.251 536.803 226.772 536.479 226.453C536.155 226.13 535.724 225.968 535.185 225.968C534.646 225.968 534.214 226.13 533.891 226.453C533.567 226.772 533.333 227.251 533.188 227.888C533.047 228.521 532.977 229.309 532.977 230.251ZM542.126 224.977C542.83 224.977 543.362 225.258 543.723 225.821C544.088 226.378 544.271 227.168 544.271 228.191C544.271 229.213 544.095 230.01 543.744 230.582C543.392 231.149 542.853 231.433 542.126 231.433C541.451 231.433 540.933 231.149 540.572 230.582C540.216 230.01 540.038 229.213 540.038 228.191C540.038 227.168 540.209 226.378 540.551 225.821C540.893 225.258 541.418 224.977 542.126 224.977ZM542.126 225.814C541.746 225.814 541.468 226.013 541.289 226.411C541.111 226.805 541.022 227.398 541.022 228.191C541.022 228.983 541.111 229.581 541.289 229.984C541.468 230.387 541.746 230.589 542.126 230.589C542.52 230.589 542.813 230.387 543.005 229.984C543.198 229.581 543.294 228.983 543.294 228.191C543.294 227.403 543.198 226.81 543.005 226.411C542.818 226.013 542.525 225.814 542.126 225.814ZM548.639 225.124L542.935 235.406H541.908L547.612 225.124H548.639ZM548.364 229.098C549.063 229.098 549.595 229.379 549.961 229.942C550.326 230.5 550.509 231.29 550.509 232.312C550.509 233.329 550.333 234.124 549.982 234.696C549.63 235.263 549.091 235.547 548.364 235.547C547.684 235.547 547.166 235.263 546.81 234.696C546.454 234.124 546.276 233.329 546.276 232.312C546.276 231.29 546.444 230.5 546.782 229.942C547.124 229.379 547.652 229.098 548.364 229.098ZM548.364 229.942C547.984 229.942 547.706 230.139 547.527 230.532C547.349 230.926 547.26 231.519 547.26 232.312C547.26 233.104 547.349 233.702 547.527 234.105C547.706 234.504 547.984 234.703 548.364 234.703C548.758 234.703 549.051 234.506 549.243 234.112C549.436 233.714 549.532 233.113 549.532 232.312C549.532 231.524 549.436 230.933 549.243 230.539C549.056 230.141 548.763 229.942 548.364 229.942Z" fill="white"/>
<circle cx="22.7686" cy="22.7685" r="5.69218" fill="#FC5B00"/>
<circle cx="45.5373" cy="22.7684" r="5.69218" fill="#ECAA00"/>
<circle cx="68.3061" cy="22.7684" r="5.69218" fill="#009D10"/>
</g>
</g>
<g filter="url(#filter2_b_520_259)">
<rect x="1.29712" y="311.345" width="232.212" height="199.78" rx="18.1618" fill="white" fill-opacity="0.18"/>
</g>
<ellipse cx="26.5485" cy="333.017" rx="5.70332" ry="5.74906" fill="#FC5B00"/>
<ellipse cx="49.3618" cy="333.017" rx="5.70332" ry="5.74906" fill="#ECAA00"/>
<ellipse cx="72.1749" cy="333.017" rx="5.70332" ry="5.74906" fill="#009D10"/>
<rect width="11.243" height="28.114" rx="5.62151" transform="matrix(1 0 0 -1 31.1344 486.388)" fill="#0DBBFC"/>
<rect width="11.243" height="16.2933" rx="5.62151" transform="matrix(1 0 0 -1 53.6205 474.567)" fill="#0DBBFC"/>
<rect x="87.3496" y="458.274" width="11.243" height="75.4" rx="5.62151" transform="rotate(-180 87.3496 458.274)" fill="#0DBBFC"/>
<rect x="109.836" y="458.274" width="11.243" height="112.07" rx="5.62151" transform="rotate(-180 109.836 458.274)" fill="#95ABBC"/>
<rect x="132.322" y="458.274" width="11.243" height="70.32" rx="5.62151" transform="rotate(-180 132.322 458.274)" fill="#0DBBFC"/>
<rect x="154.807" y="458.27" width="11.243" height="90.92" rx="5.62151" transform="rotate(-180 154.807 458.27)" fill="#0DBBFC"/>
<rect x="177.294" y="458.274" width="11.243" height="84.66" rx="5.62151" transform="rotate(-180 177.294 458.274)" fill="#0DBBFC"/>
<rect x="188.537" y="419.617" width="11.243" height="38.6568" rx="5.62151" fill="#0DBBFC"/>
</g>
<defs>
<filter id="filter0_b_520_259" x="119.349" y="150.483" width="638.258" height="521.503" filterUnits="userSpaceOnUse" color-interpolation-filters="sRGB">
<feFlood flood-opacity="0" result="BackgroundImageFix"/>
<feGaussianBlur in="BackgroundImageFix" stdDeviation="80.4309"/>
<feComposite in2="SourceAlpha" operator="in" result="effect1_backgroundBlur_520_259"/>
<feBlend mode="normal" in="SourceGraphic" in2="effect1_backgroundBlur_520_259" result="shape"/>
</filter>
<filter id="filter1_b_520_259" x="-83.0257" y="-83.0257" width="762.796" height="446.262" filterUnits="userSpaceOnUse" color-interpolation-filters="sRGB">
<feFlood flood-opacity="0" result="BackgroundImageFix"/>
<feGaussianBlur in="BackgroundImageFix" stdDeviation="41.5127"/>
<feComposite in2="SourceAlpha" operator="in" result="effect1_backgroundBlur_520_259"/>
<feBlend mode="normal" in="SourceGraphic" in2="effect1_backgroundBlur_520_259" result="shape"/>
</filter>
<filter id="filter2_b_520_259" x="-81.7283" y="228.32" width="398.262" height="365.831" filterUnits="userSpaceOnUse" color-interpolation-filters="sRGB">
<feFlood flood-opacity="0" result="BackgroundImageFix"/>
<feGaussianBlur in="BackgroundImageFix" stdDeviation="41.5127"/>
<feComposite in2="SourceAlpha" operator="in" result="effect1_backgroundBlur_520_259"/>
<feBlend mode="normal" in="SourceGraphic" in2="effect1_backgroundBlur_520_259" result="shape"/>
</filter>
<clipPath id="clip0_520_259">
<rect width="596.745" height="511.125" fill="white"/>
</clipPath>
<clipPath id="clip1_520_259">
<rect width="112.421" height="112.421" fill="white" transform="translate(314.364 368.267)"/>
</clipPath>
<clipPath id="clip2_520_259">
<rect x="-0.000244141" y="-0.000244141" width="596.745" height="280.211" rx="18.1618" fill="white"/>
</clipPath>
</defs>
</svg>
