<svg width="597" height="512" viewBox="0 0 597 512" fill="none" xmlns="http://www.w3.org/2000/svg">
<g clip-path="url(#clip0_523_383)">
<g filter="url(#filter0_b_523_383)">
<rect x="280.21" y="311.345" width="316.534" height="199.78" rx="17.0766" fill="white" fill-opacity="0.2"/>
<rect x="543.294" y="393.512" width="9.66668" height="77" rx="4.83334" transform="rotate(90 543.294 393.512)" fill="#95ABBC"/>
<rect x="554.464" y="420.255" width="9.66668" height="88.17" rx="4.83334" transform="rotate(90 554.464 420.255)" fill="#95ABBC"/>
<rect x="548.124" y="446.999" width="9.66668" height="81.83" rx="4.83334" transform="rotate(90 548.124 446.999)" fill="#95ABBC"/>
<g clip-path="url(#clip1_523_383)">
<path d="M418.741 424.481C418.741 451.126 397.194 472.696 370.651 472.696C344.109 472.696 322.562 451.126 322.562 424.481C322.562 397.836 344.109 376.266 370.651 376.266C397.194 376.266 418.741 397.836 418.741 424.481Z" stroke="#1C3D5B" stroke-width="16.183"/>
<mask id="mask0_523_383" style="mask-type:alpha" maskUnits="userSpaceOnUse" x="280" y="347" width="89" height="147">
<path d="M368.859 419.289L346.945 347.807L280.603 432.068L315.866 493.565L368.859 419.289Z" fill="#C4C4C4"/>
</mask>
<g mask="url(#mask0_523_383)">
<path d="M418.63 424.48C418.63 451.126 397.083 472.695 370.541 472.695C343.998 472.695 322.451 451.126 322.451 424.48C322.451 397.835 343.998 376.265 370.541 376.265C397.083 376.265 418.63 397.835 418.63 424.48Z" stroke="#0DBBFC" stroke-width="16.183"/>
</g>
<mask id="mask1_523_383" style="mask-type:alpha" maskUnits="userSpaceOnUse" x="307" y="342" width="126" height="110">
<path d="M363 429L433 451.5L426 342.5L307.5 371L363 429Z" fill="#C4C4C4"/>
</mask>
<g mask="url(#mask1_523_383)">
<path d="M346.006 465.856C323.177 452.221 315.683 422.633 329.271 399.769C342.86 376.906 372.382 369.427 395.211 383.062C418.04 396.698 425.534 426.285 411.946 449.149C398.358 472.013 368.835 479.492 346.006 465.856Z" stroke="#1B45BF" stroke-width="16.183"/>
</g>
</g>
</g>
<ellipse cx="305.466" cy="332.292" rx="5.8" ry="6.04167" fill="#FC5B00"/>
<ellipse cx="328.666" cy="332.291" rx="5.8" ry="6.04167" fill="#ECAA00"/>
<ellipse cx="351.866" cy="332.291" rx="5.8" ry="6.04167" fill="#009D10"/>
<g filter="url(#filter1_b_523_383)">
<g clip-path="url(#clip2_523_383)">
<rect x="-0.000244141" y="-0.000244141" width="596.745" height="280.211" rx="18.1618" fill="white" fill-opacity="0.18"/>
<rect x="100.026" y="82.3844" width="14.2305" height="65.4601" rx="7.11523" transform="rotate(90 100.026 82.3844)" fill="#95ABBC"/>
<rect x="459.31" y="82.2982" width="14.403" height="342" rx="7.20149" transform="rotate(90 459.31 82.2982)" fill="#8FB6D5"/>
<path d="M484.055 89.3567C484.055 89.9803 484.01 90.5874 483.921 91.1782C483.837 91.7689 483.689 92.3198 483.478 92.8309C483.272 93.3419 482.991 93.7897 482.634 94.1741C482.278 94.5586 481.83 94.861 481.291 95.0813C480.757 95.297 480.117 95.4048 479.371 95.4048C479.17 95.4048 478.94 95.3908 478.682 95.3626C478.424 95.3392 478.213 95.304 478.049 95.2572V94.2444C478.223 94.3054 478.426 94.3546 478.661 94.3921C478.895 94.425 479.125 94.4414 479.35 94.4414C480.227 94.4414 480.916 94.2538 481.418 93.8787C481.919 93.499 482.28 92.9856 482.501 92.3386C482.721 91.6869 482.845 90.9555 482.873 90.1444H482.789C482.648 90.3694 482.463 90.5781 482.233 90.7703C482.008 90.9578 481.734 91.1102 481.411 91.2274C481.087 91.3399 480.71 91.3962 480.278 91.3962C479.683 91.3962 479.163 91.2743 478.717 91.0305C478.276 90.7867 477.932 90.4327 477.683 89.9686C477.44 89.5044 477.318 88.9441 477.318 88.2878C477.318 87.5798 477.451 86.968 477.718 86.4522C477.99 85.9318 478.37 85.5309 478.858 85.2496C479.345 84.9683 479.92 84.8277 480.581 84.8277C481.087 84.8277 481.551 84.9238 481.973 85.116C482.395 85.3082 482.761 85.5966 483.07 85.981C483.384 86.3608 483.626 86.832 483.795 87.3946C483.968 87.9572 484.055 88.6113 484.055 89.3567ZM480.581 85.8193C479.957 85.8193 479.451 86.0232 479.062 86.4311C478.677 86.839 478.485 87.4532 478.485 88.2737C478.485 88.9535 478.651 89.4903 478.984 89.8842C479.317 90.278 479.831 90.4749 480.525 90.4749C481.003 90.4749 481.415 90.3788 481.762 90.1866C482.114 89.9944 482.384 89.7506 482.571 89.4552C482.763 89.1598 482.859 88.8574 482.859 88.548C482.859 88.2385 482.813 87.9244 482.719 87.6056C482.63 87.2868 482.491 86.9937 482.304 86.7265C482.116 86.4546 481.88 86.2366 481.594 86.0725C481.308 85.9037 480.97 85.8193 480.581 85.8193ZM492.339 90.1022C492.339 90.9367 492.276 91.6822 492.15 92.3386C492.023 92.995 491.824 93.5506 491.552 94.0053C491.28 94.4601 490.928 94.8071 490.497 95.0462C490.066 95.2806 489.547 95.3978 488.943 95.3978C488.178 95.3978 487.546 95.1892 487.044 94.7719C486.547 94.3546 486.174 93.7522 485.926 92.9645C485.682 92.1721 485.56 91.218 485.56 90.1022C485.56 89.0051 485.67 88.0627 485.89 87.275C486.116 86.4827 486.477 85.8755 486.974 85.4536C487.47 85.0269 488.127 84.8136 488.943 84.8136C489.716 84.8136 490.354 85.0246 490.856 85.4465C491.357 85.8638 491.73 86.4686 491.974 87.261C492.218 88.0486 492.339 88.9957 492.339 90.1022ZM486.734 90.1022C486.734 91.0586 486.807 91.8557 486.952 92.4933C487.098 93.1309 487.332 93.6092 487.656 93.928C487.984 94.2421 488.413 94.3992 488.943 94.3992C489.472 94.3992 489.899 94.2421 490.223 93.928C490.551 93.6139 490.788 93.138 490.933 92.5003C491.083 91.8627 491.158 91.0633 491.158 90.1022C491.158 89.1598 491.085 88.3722 490.94 87.7392C490.795 87.1016 490.56 86.6234 490.237 86.3045C489.913 85.981 489.482 85.8193 488.943 85.8193C488.403 85.8193 487.972 85.981 487.649 86.3045C487.325 86.6234 487.091 87.1016 486.945 87.7392C486.805 88.3722 486.734 89.1598 486.734 90.1022ZM495.884 84.8277C496.587 84.8277 497.119 85.109 497.48 85.6716C497.846 86.2295 498.029 87.0195 498.029 88.0416C498.029 89.0637 497.853 89.8607 497.501 90.4327C497.15 91 496.611 91.2837 495.884 91.2837C495.209 91.2837 494.691 91 494.33 90.4327C493.973 89.8607 493.795 89.0637 493.795 88.0416C493.795 87.0195 493.966 86.2295 494.309 85.6716C494.651 85.109 495.176 84.8277 495.884 84.8277ZM495.884 85.6646C495.504 85.6646 495.225 85.8638 495.047 86.2623C494.869 86.6562 494.78 87.2493 494.78 88.0416C494.78 88.834 494.869 89.4317 495.047 89.835C495.225 90.2382 495.504 90.4398 495.884 90.4398C496.278 90.4398 496.571 90.2382 496.763 89.835C496.955 89.4317 497.051 88.834 497.051 88.0416C497.051 87.254 496.955 86.6609 496.763 86.2623C496.575 85.8638 496.282 85.6646 495.884 85.6646ZM502.396 84.9754L496.693 95.2572H495.666L501.369 84.9754H502.396ZM502.122 88.9488C502.821 88.9488 503.353 89.2301 503.718 89.7928C504.084 90.3507 504.267 91.1407 504.267 92.1628C504.267 93.1802 504.091 93.9749 503.739 94.5469C503.388 95.1142 502.849 95.3978 502.122 95.3978C501.442 95.3978 500.924 95.1142 500.568 94.5469C500.211 93.9749 500.033 93.1802 500.033 92.1628C500.033 91.1407 500.202 90.3507 500.54 89.7928C500.882 89.2301 501.409 88.9488 502.122 88.9488ZM502.122 89.7928C501.742 89.7928 501.463 89.9897 501.285 90.3835C501.107 90.7773 501.018 91.3704 501.018 92.1628C501.018 92.9551 501.107 93.5529 501.285 93.9561C501.463 94.3546 501.742 94.5539 502.122 94.5539C502.516 94.5539 502.809 94.357 503.001 93.9631C503.193 93.5646 503.289 92.9645 503.289 92.1628C503.289 91.3751 503.193 90.7844 503.001 90.3905C502.813 89.992 502.52 89.7928 502.122 89.7928Z" fill="white"/>
<rect x="100.026" y="129.554" width="14.2305" height="65.4601" rx="7.11523" transform="rotate(90 100.026 129.554)" fill="#95ABBC"/>
<rect x="269.31" y="129.828" width="13.6828" height="152" rx="6.84141" transform="rotate(90 269.31 129.828)" fill="#0DBBFC"/>
<path d="M294.554 139.403H293.014V141.787H291.875V139.403H286.903V138.418L291.797 131.449H293.014V138.348H294.554V139.403ZM291.875 138.348V134.986C291.875 134.728 291.877 134.496 291.882 134.29C291.886 134.079 291.893 133.884 291.903 133.706C291.912 133.523 291.919 133.35 291.924 133.186C291.933 133.022 291.94 132.86 291.945 132.701H291.889C291.8 132.888 291.697 133.087 291.579 133.298C291.467 133.505 291.352 133.69 291.235 133.854L288.063 138.348H291.875ZM302.339 136.632C302.339 137.466 302.276 138.212 302.149 138.868C302.023 139.525 301.824 140.08 301.552 140.535C301.28 140.99 300.928 141.337 300.497 141.576C300.065 141.81 299.547 141.928 298.943 141.928C298.178 141.928 297.545 141.719 297.044 141.302C296.547 140.884 296.174 140.282 295.926 139.494C295.682 138.702 295.56 137.748 295.56 136.632C295.56 135.535 295.67 134.592 295.89 133.805C296.115 133.012 296.476 132.405 296.973 131.983C297.47 131.557 298.127 131.343 298.943 131.343C299.716 131.343 300.354 131.554 300.855 131.976C301.357 132.394 301.73 132.998 301.974 133.791C302.217 134.578 302.339 135.525 302.339 136.632ZM296.734 136.632C296.734 137.588 296.807 138.385 296.952 139.023C297.098 139.661 297.332 140.139 297.656 140.458C297.984 140.772 298.413 140.929 298.943 140.929C299.472 140.929 299.899 140.772 300.222 140.458C300.551 140.144 300.787 139.668 300.933 139.03C301.083 138.392 301.158 137.593 301.158 136.632C301.158 135.69 301.085 134.902 300.94 134.269C300.794 133.631 300.56 133.153 300.237 132.834C299.913 132.511 299.482 132.349 298.943 132.349C298.403 132.349 297.972 132.511 297.649 132.834C297.325 133.153 297.091 133.631 296.945 134.269C296.805 134.902 296.734 135.69 296.734 136.632ZM305.884 131.357C306.587 131.357 307.119 131.639 307.48 132.201C307.846 132.759 308.029 133.549 308.029 134.571C308.029 135.593 307.853 136.39 307.501 136.962C307.15 137.53 306.611 137.813 305.884 137.813C305.209 137.813 304.691 137.53 304.33 136.962C303.973 136.39 303.795 135.593 303.795 134.571C303.795 133.549 303.966 132.759 304.308 132.201C304.651 131.639 305.176 131.357 305.884 131.357ZM305.884 132.194C305.504 132.194 305.225 132.394 305.047 132.792C304.869 133.186 304.78 133.779 304.78 134.571C304.78 135.364 304.869 135.961 305.047 136.365C305.225 136.768 305.504 136.97 305.884 136.97C306.278 136.97 306.571 136.768 306.763 136.365C306.955 135.961 307.051 135.364 307.051 134.571C307.051 133.784 306.955 133.191 306.763 132.792C306.575 132.394 306.282 132.194 305.884 132.194ZM312.396 131.505L306.693 141.787H305.666L311.369 131.505H312.396ZM312.122 135.479C312.82 135.479 313.353 135.76 313.718 136.322C314.084 136.88 314.267 137.67 314.267 138.693C314.267 139.71 314.091 140.505 313.739 141.077C313.388 141.644 312.849 141.928 312.122 141.928C311.442 141.928 310.924 141.644 310.568 141.077C310.211 140.505 310.033 139.71 310.033 138.693C310.033 137.67 310.202 136.88 310.539 136.322C310.882 135.76 311.409 135.479 312.122 135.479ZM312.122 136.322C311.742 136.322 311.463 136.519 311.285 136.913C311.107 137.307 311.018 137.9 311.018 138.693C311.018 139.485 311.107 140.083 311.285 140.486C311.463 140.884 311.742 141.084 312.122 141.084C312.516 141.084 312.809 140.887 313.001 140.493C313.193 140.094 313.289 139.494 313.289 138.693C313.289 137.905 313.193 137.314 313.001 136.92C312.813 136.522 312.52 136.322 312.122 136.322Z" fill="white"/>
<rect x="100.026" y="176.364" width="14.2305" height="65.4601" rx="7.11523" transform="rotate(90 100.026 176.364)" fill="#95ABBC"/>
<rect x="501.148" y="176.277" width="14.403" height="383.839" rx="7.20149" transform="rotate(90 501.148 176.277)" fill="white"/>
<path d="M523.488 188.597H522.349V181.311C522.349 181.034 522.349 180.797 522.349 180.6C522.354 180.399 522.358 180.216 522.363 180.052C522.373 179.883 522.384 179.712 522.398 179.538C522.253 179.688 522.117 179.817 521.99 179.925C521.864 180.028 521.707 180.157 521.519 180.312L520.345 181.254L519.733 180.46L522.518 178.315H523.488V188.597ZM534.178 183.442C534.178 184.276 534.115 185.022 533.988 185.678C533.862 186.334 533.662 186.89 533.39 187.345C533.118 187.8 532.767 188.146 532.336 188.386C531.904 188.62 531.386 188.737 530.781 188.737C530.017 188.737 529.384 188.529 528.882 188.111C528.385 187.694 528.013 187.092 527.764 186.304C527.52 185.512 527.399 184.557 527.399 183.442C527.399 182.344 527.509 181.402 527.729 180.614C527.954 179.822 528.315 179.215 528.812 178.793C529.309 178.366 529.966 178.153 530.781 178.153C531.555 178.153 532.193 178.364 532.694 178.786C533.196 179.203 533.569 179.808 533.812 180.6C534.056 181.388 534.178 182.335 534.178 183.442ZM528.573 183.442C528.573 184.398 528.646 185.195 528.791 185.833C528.936 186.47 529.171 186.949 529.494 187.267C529.823 187.581 530.251 187.739 530.781 187.739C531.311 187.739 531.738 187.581 532.061 187.267C532.389 186.953 532.626 186.477 532.772 185.84C532.922 185.202 532.997 184.403 532.997 183.442C532.997 182.499 532.924 181.712 532.779 181.079C532.633 180.441 532.399 179.963 532.075 179.644C531.752 179.32 531.32 179.159 530.781 179.159C530.242 179.159 529.811 179.32 529.487 179.644C529.164 179.963 528.929 180.441 528.784 181.079C528.643 181.712 528.573 182.499 528.573 183.442ZM542.42 183.442C542.42 184.276 542.357 185.022 542.231 185.678C542.104 186.334 541.905 186.89 541.633 187.345C541.361 187.8 541.009 188.146 540.578 188.386C540.146 188.62 539.628 188.737 539.024 188.737C538.259 188.737 537.626 188.529 537.125 188.111C536.628 187.694 536.255 187.092 536.007 186.304C535.763 185.512 535.641 184.557 535.641 183.442C535.641 182.344 535.751 181.402 535.971 180.614C536.196 179.822 536.557 179.215 537.054 178.793C537.551 178.366 538.208 178.153 539.024 178.153C539.797 178.153 540.435 178.364 540.937 178.786C541.438 179.203 541.811 179.808 542.055 180.6C542.299 181.388 542.42 182.335 542.42 183.442ZM536.815 183.442C536.815 184.398 536.888 185.195 537.033 185.833C537.179 186.47 537.413 186.949 537.737 187.267C538.065 187.581 538.494 187.739 539.024 187.739C539.553 187.739 539.98 187.581 540.304 187.267C540.632 186.953 540.869 186.477 541.014 185.84C541.164 185.202 541.239 184.403 541.239 183.442C541.239 182.499 541.166 181.712 541.021 181.079C540.876 180.441 540.641 179.963 540.318 179.644C539.994 179.32 539.563 179.159 539.024 179.159C538.484 179.159 538.053 179.32 537.73 179.644C537.406 179.963 537.172 180.441 537.026 181.079C536.886 181.712 536.815 182.499 536.815 183.442ZM545.965 178.167C546.668 178.167 547.2 178.448 547.561 179.011C547.927 179.569 548.11 180.359 548.11 181.381C548.11 182.403 547.934 183.2 547.582 183.772C547.231 184.339 546.692 184.623 545.965 184.623C545.29 184.623 544.772 184.339 544.411 183.772C544.054 183.2 543.876 182.403 543.876 181.381C543.876 180.359 544.047 179.569 544.39 179.011C544.732 178.448 545.257 178.167 545.965 178.167ZM545.965 179.004C545.585 179.004 545.306 179.203 545.128 179.602C544.95 179.996 544.861 180.589 544.861 181.381C544.861 182.173 544.95 182.771 545.128 183.174C545.306 183.578 545.585 183.779 545.965 183.779C546.359 183.779 546.652 183.578 546.844 183.174C547.036 182.771 547.132 182.173 547.132 181.381C547.132 180.593 547.036 180 546.844 179.602C546.656 179.203 546.363 179.004 545.965 179.004ZM552.477 178.315L546.774 188.597H545.747L551.45 178.315H552.477ZM552.203 182.288C552.901 182.288 553.434 182.57 553.799 183.132C554.165 183.69 554.348 184.48 554.348 185.502C554.348 186.52 554.172 187.314 553.82 187.886C553.469 188.454 552.93 188.737 552.203 188.737C551.523 188.737 551.005 188.454 550.649 187.886C550.292 187.314 550.114 186.52 550.114 185.502C550.114 184.48 550.283 183.69 550.621 183.132C550.963 182.57 551.49 182.288 552.203 182.288ZM552.203 183.132C551.823 183.132 551.544 183.329 551.366 183.723C551.188 184.117 551.099 184.71 551.099 185.502C551.099 186.295 551.188 186.892 551.366 187.296C551.544 187.694 551.823 187.893 552.203 187.893C552.597 187.893 552.89 187.696 553.082 187.303C553.274 186.904 553.37 186.304 553.37 185.502C553.37 184.715 553.274 184.124 553.082 183.73C552.894 183.331 552.601 183.132 552.203 183.132Z" fill="white"/>
<rect x="100.026" y="223.173" width="14.2305" height="65.4601" rx="7.11523" transform="rotate(90 100.026 223.173)" fill="#95ABBC"/>
<rect x="440.31" y="223.447" width="13.6828" height="323" rx="6.84141" transform="rotate(90 440.31 223.447)" fill="#2D9CDB"/>
<path d="M461.7 224.977C462.296 224.977 462.823 225.07 463.283 225.258C463.742 225.445 464.101 225.722 464.359 226.088C464.621 226.449 464.753 226.894 464.753 227.424C464.753 227.841 464.661 228.207 464.478 228.521C464.3 228.831 464.059 229.102 463.754 229.337C463.449 229.567 463.112 229.773 462.741 229.956C463.182 230.157 463.578 230.385 463.93 230.638C464.286 230.891 464.567 231.189 464.774 231.531C464.98 231.873 465.083 232.279 465.083 232.748C465.083 233.324 464.942 233.824 464.661 234.246C464.384 234.663 463.995 234.984 463.494 235.209C462.992 235.434 462.404 235.547 461.728 235.547C461.002 235.547 460.383 235.439 459.872 235.223C459.366 235.003 458.979 234.689 458.711 234.281C458.449 233.868 458.318 233.374 458.318 232.797C458.318 232.323 458.418 231.913 458.62 231.566C458.822 231.215 459.089 230.912 459.422 230.659C459.755 230.406 460.118 230.193 460.512 230.019C460.17 229.832 459.855 229.618 459.569 229.379C459.288 229.14 459.063 228.861 458.894 228.542C458.73 228.219 458.648 227.844 458.648 227.417C458.648 226.897 458.779 226.456 459.042 226.095C459.309 225.729 459.673 225.452 460.132 225.265C460.596 225.073 461.119 224.977 461.7 224.977ZM459.464 232.804C459.464 233.329 459.649 233.763 460.02 234.105C460.39 234.443 460.95 234.611 461.7 234.611C462.413 234.611 462.964 234.443 463.353 234.105C463.742 233.763 463.937 233.315 463.937 232.762C463.937 232.42 463.848 232.119 463.67 231.862C463.491 231.599 463.238 231.365 462.91 231.158C462.582 230.952 462.195 230.765 461.75 230.596L461.496 230.504C461.065 230.682 460.697 230.882 460.392 231.102C460.092 231.318 459.862 231.564 459.703 231.841C459.544 232.117 459.464 232.438 459.464 232.804ZM461.686 225.933C461.133 225.933 460.681 226.067 460.329 226.334C459.977 226.596 459.802 226.976 459.802 227.473C459.802 227.83 459.886 228.132 460.055 228.38C460.228 228.624 460.463 228.835 460.758 229.013C461.053 229.187 461.384 229.349 461.75 229.499C462.106 229.349 462.422 229.185 462.699 229.006C462.976 228.823 463.194 228.608 463.353 228.359C463.512 228.111 463.592 227.813 463.592 227.466C463.592 226.969 463.416 226.589 463.065 226.327C462.718 226.064 462.258 225.933 461.686 225.933ZM469.795 229.119C470.494 229.119 471.101 229.238 471.616 229.478C472.132 229.712 472.531 230.054 472.812 230.504C473.098 230.954 473.241 231.501 473.241 232.143C473.241 232.846 473.089 233.453 472.784 233.964C472.479 234.471 472.041 234.862 471.469 235.139C470.897 235.411 470.212 235.547 469.415 235.547C468.881 235.547 468.384 235.5 467.924 235.406C467.465 235.312 467.078 235.172 466.764 234.984V233.873C467.106 234.079 467.521 234.243 468.009 234.365C468.496 234.487 468.97 234.548 469.429 234.548C469.95 234.548 470.404 234.466 470.794 234.302C471.187 234.133 471.492 233.88 471.708 233.542C471.928 233.2 472.038 232.771 472.038 232.255C472.038 231.571 471.827 231.043 471.405 230.673C470.988 230.298 470.327 230.11 469.422 230.11C469.132 230.11 468.813 230.134 468.466 230.181C468.119 230.228 467.833 230.279 467.608 230.336L467.017 229.949L467.411 225.124H472.524V226.193H468.41L468.149 229.295C468.327 229.257 468.557 229.22 468.839 229.182C469.12 229.14 469.439 229.119 469.795 229.119ZM476.884 224.977C477.587 224.977 478.119 225.258 478.48 225.821C478.846 226.378 479.029 227.168 479.029 228.191C479.029 229.213 478.853 230.01 478.501 230.582C478.15 231.149 477.611 231.433 476.884 231.433C476.209 231.433 475.691 231.149 475.33 230.582C474.973 230.01 474.795 229.213 474.795 228.191C474.795 227.168 474.966 226.378 475.309 225.821C475.651 225.258 476.176 224.977 476.884 224.977ZM476.884 225.814C476.504 225.814 476.225 226.013 476.047 226.411C475.869 226.805 475.78 227.398 475.78 228.191C475.78 228.983 475.869 229.581 476.047 229.984C476.225 230.387 476.504 230.589 476.884 230.589C477.278 230.589 477.571 230.387 477.763 229.984C477.955 229.581 478.051 228.983 478.051 228.191C478.051 227.403 477.955 226.81 477.763 226.411C477.575 226.013 477.282 225.814 476.884 225.814ZM483.396 225.124L477.693 235.406H476.666L482.369 225.124H483.396ZM483.122 229.098C483.821 229.098 484.353 229.379 484.718 229.942C485.084 230.5 485.267 231.29 485.267 232.312C485.267 233.329 485.091 234.124 484.739 234.696C484.388 235.263 483.849 235.547 483.122 235.547C482.442 235.547 481.924 235.263 481.568 234.696C481.211 234.124 481.033 233.329 481.033 232.312C481.033 231.29 481.202 230.5 481.54 229.942C481.882 229.379 482.409 229.098 483.122 229.098ZM483.122 229.942C482.742 229.942 482.463 230.139 482.285 230.532C482.107 230.926 482.018 231.519 482.018 232.312C482.018 233.104 482.107 233.702 482.285 234.105C482.463 234.504 482.742 234.703 483.122 234.703C483.516 234.703 483.809 234.506 484.001 234.112C484.193 233.714 484.289 233.113 484.289 232.312C484.289 231.524 484.193 230.933 484.001 230.539C483.813 230.141 483.52 229.942 483.122 229.942Z" fill="white"/>
<circle cx="22.7686" cy="22.7685" r="5.69218" fill="#FC5B00"/>
<circle cx="45.5373" cy="22.7684" r="5.69218" fill="#ECAA00"/>
<circle cx="68.3061" cy="22.7684" r="5.69218" fill="#009D10"/>
</g>
</g>
<g filter="url(#filter2_b_523_383)">
<rect x="1.29712" y="311.345" width="232.212" height="199.78" rx="18.1618" fill="white" fill-opacity="0.18"/>
</g>
<ellipse cx="26.5485" cy="333.017" rx="5.70332" ry="5.74906" fill="#FC5B00"/>
<ellipse cx="49.3618" cy="333.017" rx="5.70332" ry="5.74906" fill="#ECAA00"/>
<ellipse cx="72.1749" cy="333.017" rx="5.70332" ry="5.74906" fill="#009D10"/>
<rect width="11.243" height="28.114" rx="5.62151" transform="matrix(1 0 0 -1 31.1344 486.388)" fill="#0DBBFC"/>
<rect width="11.243" height="16.2933" rx="5.62151" transform="matrix(1 0 0 -1 53.6205 474.567)" fill="#0DBBFC"/>
<rect x="87.3496" y="458.274" width="11.243" height="75.4" rx="5.62151" transform="rotate(-180 87.3496 458.274)" fill="#0DBBFC"/>
<rect x="109.836" y="458.274" width="11.243" height="62.07" rx="5.62151" transform="rotate(-180 109.836 458.274)" fill="#0DBBFC"/>
<rect x="132.322" y="458.274" width="11.243" height="70.32" rx="5.62151" transform="rotate(-180 132.322 458.274)" fill="#0DBBFC"/>
<rect x="154.807" y="458.27" width="11.243" height="110.92" rx="5.62151" transform="rotate(-180 154.807 458.27)" fill="#95ABBC"/>
<rect x="177.294" y="458.274" width="11.243" height="94.66" rx="5.62151" transform="rotate(-180 177.294 458.274)" fill="#0DBBFC"/>
<rect x="188.537" y="419.617" width="11.243" height="38.6568" rx="5.62151" fill="#0DBBFC"/>
</g>
<defs>
<filter id="filter0_b_523_383" x="119.349" y="150.483" width="638.258" height="521.503" filterUnits="userSpaceOnUse" color-interpolation-filters="sRGB">
<feFlood flood-opacity="0" result="BackgroundImageFix"/>
<feGaussianBlur in="BackgroundImageFix" stdDeviation="80.4309"/>
<feComposite in2="SourceAlpha" operator="in" result="effect1_backgroundBlur_523_383"/>
<feBlend mode="normal" in="SourceGraphic" in2="effect1_backgroundBlur_523_383" result="shape"/>
</filter>
<filter id="filter1_b_523_383" x="-83.0257" y="-83.0257" width="762.796" height="446.262" filterUnits="userSpaceOnUse" color-interpolation-filters="sRGB">
<feFlood flood-opacity="0" result="BackgroundImageFix"/>
<feGaussianBlur in="BackgroundImageFix" stdDeviation="41.5127"/>
<feComposite in2="SourceAlpha" operator="in" result="effect1_backgroundBlur_523_383"/>
<feBlend mode="normal" in="SourceGraphic" in2="effect1_backgroundBlur_523_383" result="shape"/>
</filter>
<filter id="filter2_b_523_383" x="-81.7283" y="228.32" width="398.262" height="365.831" filterUnits="userSpaceOnUse" color-interpolation-filters="sRGB">
<feFlood flood-opacity="0" result="BackgroundImageFix"/>
<feGaussianBlur in="BackgroundImageFix" stdDeviation="41.5127"/>
<feComposite in2="SourceAlpha" operator="in" result="effect1_backgroundBlur_523_383"/>
<feBlend mode="normal" in="SourceGraphic" in2="effect1_backgroundBlur_523_383" result="shape"/>
</filter>
<clipPath id="clip0_523_383">
<rect width="596.745" height="511.125" fill="white"/>
</clipPath>
<clipPath id="clip1_523_383">
<rect width="112.421" height="112.421" fill="white" transform="translate(314.364 368.267)"/>
</clipPath>
<clipPath id="clip2_523_383">
<rect x="-0.000244141" y="-0.000244141" width="596.745" height="280.211" rx="18.1618" fill="white"/>
</clipPath>
</defs>
</svg>
