<svg width="597" height="513" viewBox="0 0 597 513" fill="none" xmlns="http://www.w3.org/2000/svg">
<g clip-path="url(#clip0_5_453)">
<g filter="url(#filter0_b_5_453)">
<rect x="280.465" y="312.249" width="316.534" height="199.78" rx="17.0766" fill="white" fill-opacity="0.2"/>
<rect x="553.549" y="394.256" width="9.66668" height="87" rx="4.83334" transform="rotate(90 553.549 394.256)" fill="#95ABBC"/>
<rect x="548.716" y="420.999" width="9.66668" height="82.1667" rx="4.83334" transform="rotate(90 548.716 420.999)" fill="#95ABBC"/>
<rect x="558.382" y="447.742" width="9.66668" height="91.8334" rx="4.83334" transform="rotate(90 558.382 447.742)" fill="#95ABBC"/>
<g clip-path="url(#clip1_5_453)">
<path d="M418.996 425.384C418.996 452.03 397.449 473.599 370.906 473.599C344.364 473.599 322.817 452.03 322.817 425.384C322.817 398.739 344.364 377.169 370.906 377.169C397.449 377.169 418.996 398.739 418.996 425.384Z" stroke="#1C3D5B" stroke-width="16.183"/>
<mask id="mask0_5_453" style="mask-type:alpha" maskUnits="userSpaceOnUse" x="280" y="348" width="90" height="147">
<path d="M369.114 420.192L347.2 348.711L280.858 432.971L316.121 494.469L369.114 420.192Z" fill="#C4C4C4"/>
</mask>
<g mask="url(#mask0_5_453)">
<path d="M418.997 425.384C418.997 452.029 397.45 473.599 370.908 473.599C344.365 473.599 322.818 452.029 322.818 425.384C322.818 398.738 344.365 377.169 370.908 377.169C397.45 377.169 418.997 398.738 418.997 425.384Z" stroke="#0DBBFC" stroke-width="16.183"/>
</g>
<mask id="mask1_5_453" style="mask-type:alpha" maskUnits="userSpaceOnUse" x="339" y="342" width="111" height="103">
<path d="M376.532 426.456L449.028 444.208L410.717 343.965L339.953 342.813L376.532 426.456Z" fill="#C4C4C4"/>
</mask>
<g mask="url(#mask1_5_453)">
<path d="M346.257 466.758C323.429 453.121 315.937 423.533 329.526 400.67C343.116 377.807 372.638 370.33 395.466 383.966C418.294 397.603 425.786 427.191 412.197 450.054C398.608 472.917 369.085 480.394 346.257 466.758Z" stroke="#1B45BF" stroke-width="16.183"/>
</g>
</g>
</g>
<ellipse cx="305.721" cy="333.195" rx="5.8" ry="6.04167" fill="#FC5B00"/>
<ellipse cx="328.921" cy="333.195" rx="5.8" ry="6.04167" fill="#ECAA00"/>
<ellipse cx="352.121" cy="333.195" rx="5.8" ry="6.04167" fill="#009D10"/>
<g filter="url(#filter1_b_5_453)">
<g clip-path="url(#clip2_5_453)">
<rect x="0.254761" y="0.903198" width="596.745" height="280.211" rx="18.1618" fill="white" fill-opacity="0.18"/>
<rect x="100.281" y="83.2879" width="14.2305" height="65.4601" rx="7.11523" transform="rotate(90 100.281 83.2879)" fill="#95ABBC"/>
<rect x="443.792" y="83.2017" width="14.403" height="326.227" rx="7.20149" transform="rotate(90 443.792 83.2017)" fill="#8FB6D5"/>
<path d="M465.182 85.7311C465.777 85.7311 466.305 85.8249 466.764 86.0124C467.224 86.2 467.583 86.4766 467.84 86.8423C468.103 87.2033 468.234 87.6487 468.234 88.1785C468.234 88.5958 468.143 88.9615 467.96 89.2756C467.782 89.585 467.54 89.857 467.236 90.0914C466.931 90.3211 466.593 90.5274 466.223 90.7103C466.664 90.9119 467.06 91.1393 467.411 91.3924C467.768 91.6456 468.049 91.9433 468.255 92.2856C468.462 92.6278 468.565 93.0334 468.565 93.5022C468.565 94.0789 468.424 94.5782 468.143 95.0002C467.866 95.4175 467.477 95.7386 466.975 95.9637C466.474 96.1887 465.885 96.3013 465.21 96.3013C464.483 96.3013 463.865 96.1934 463.354 95.9777C462.847 95.7574 462.46 95.4433 462.193 95.0354C461.931 94.6228 461.799 94.1282 461.799 93.5515C461.799 93.0779 461.9 92.6677 462.102 92.3207C462.303 91.9691 462.571 91.6667 462.903 91.4135C463.236 91.1604 463.6 90.947 463.994 90.7736C463.651 90.586 463.337 90.3727 463.051 90.1336C462.77 89.8945 462.545 89.6155 462.376 89.2967C462.212 88.9732 462.13 88.5981 462.13 88.1715C462.13 87.651 462.261 87.2103 462.524 86.8493C462.791 86.4836 463.154 86.207 463.614 86.0195C464.078 85.8272 464.601 85.7311 465.182 85.7311ZM462.946 93.5585C462.946 94.0836 463.131 94.5173 463.501 94.8596C463.872 95.1971 464.432 95.3659 465.182 95.3659C465.895 95.3659 466.446 95.1971 466.835 94.8596C467.224 94.5173 467.418 94.0695 467.418 93.5163C467.418 93.174 467.329 92.874 467.151 92.6161C466.973 92.3536 466.72 92.1191 466.392 91.9129C466.063 91.7066 465.677 91.519 465.231 91.3502L464.978 91.2588C464.547 91.437 464.179 91.6362 463.874 91.8566C463.574 92.0723 463.344 92.3184 463.185 92.595C463.025 92.8716 462.946 93.1928 462.946 93.5585ZM465.168 86.6876C464.615 86.6876 464.162 86.8212 463.811 87.0884C463.459 87.351 463.283 87.7307 463.283 88.2277C463.283 88.584 463.368 88.8865 463.536 89.1349C463.71 89.3787 463.944 89.5897 464.24 89.7679C464.535 89.9414 464.866 90.1031 465.231 90.2531C465.588 90.1031 465.904 89.939 466.181 89.7608C466.457 89.578 466.675 89.3623 466.835 89.1138C466.994 88.8654 467.074 88.5676 467.074 88.2207C467.074 87.7237 466.898 87.3439 466.546 87.0814C466.199 86.8188 465.74 86.6876 465.168 86.6876ZM476.821 91.0056C476.821 91.8402 476.758 92.5856 476.631 93.242C476.505 93.8984 476.305 94.454 476.033 94.9088C475.762 95.3636 475.41 95.7105 474.979 95.9496C474.547 96.184 474.029 96.3013 473.424 96.3013C472.66 96.3013 472.027 96.0926 471.526 95.6753C471.029 95.2581 470.656 94.6556 470.407 93.8679C470.164 93.0756 470.042 92.1215 470.042 91.0056C470.042 89.9085 470.152 88.9662 470.372 88.1785C470.597 87.3861 470.958 86.779 471.455 86.357C471.952 85.9304 472.609 85.717 473.424 85.717C474.198 85.717 474.836 85.928 475.337 86.35C475.839 86.7673 476.212 87.3721 476.455 88.1644C476.699 88.9521 476.821 89.8992 476.821 91.0056ZM471.216 91.0056C471.216 91.9621 471.289 92.7591 471.434 93.3968C471.579 94.0344 471.814 94.5126 472.137 94.8314C472.466 95.1455 472.895 95.3026 473.424 95.3026C473.954 95.3026 474.381 95.1455 474.704 94.8314C475.033 94.5173 475.269 94.0414 475.415 93.4038C475.565 92.7662 475.64 91.9668 475.64 91.0056C475.64 90.0633 475.567 89.2756 475.422 88.6427C475.276 88.005 475.042 87.5268 474.718 87.208C474.395 86.8845 473.964 86.7227 473.424 86.7227C472.885 86.7227 472.454 86.8845 472.13 87.208C471.807 87.5268 471.572 88.005 471.427 88.6427C471.286 89.2756 471.216 90.0633 471.216 91.0056ZM480.366 85.7311C481.069 85.7311 481.601 86.0124 481.962 86.575C482.328 87.133 482.511 87.923 482.511 88.9451C482.511 89.9671 482.335 90.7642 481.983 91.3362C481.632 91.9035 481.092 92.1871 480.366 92.1871C479.69 92.1871 479.172 91.9035 478.811 91.3362C478.455 90.7642 478.277 89.9671 478.277 88.9451C478.277 87.923 478.448 87.133 478.79 86.575C479.133 86.0124 479.658 85.7311 480.366 85.7311ZM480.366 86.568C479.986 86.568 479.707 86.7673 479.529 87.1658C479.351 87.5596 479.261 88.1527 479.261 88.9451C479.261 89.7374 479.351 90.3352 479.529 90.7384C479.707 91.1416 479.986 91.3432 480.366 91.3432C480.759 91.3432 481.052 91.1416 481.245 90.7384C481.437 90.3352 481.533 89.7374 481.533 88.9451C481.533 88.1574 481.437 87.5643 481.245 87.1658C481.057 86.7673 480.764 86.568 480.366 86.568ZM486.878 85.8788L481.174 96.1606H480.148L485.851 85.8788H486.878ZM486.604 89.8523C487.302 89.8523 487.834 90.1336 488.2 90.6962C488.566 91.2541 488.749 92.0441 488.749 93.0662C488.749 94.0836 488.573 94.8783 488.221 95.4503C487.87 96.0176 487.33 96.3013 486.604 96.3013C485.924 96.3013 485.406 96.0176 485.049 95.4503C484.693 94.8783 484.515 94.0836 484.515 93.0662C484.515 92.0441 484.684 91.2541 485.021 90.6962C485.364 90.1336 485.891 89.8523 486.604 89.8523ZM486.604 90.6962C486.224 90.6962 485.945 90.8931 485.767 91.2869C485.589 91.6808 485.499 92.2739 485.499 93.0662C485.499 93.8586 485.589 94.4563 485.767 94.8596C485.945 95.2581 486.224 95.4573 486.604 95.4573C486.997 95.4573 487.29 95.2604 487.483 94.8666C487.675 94.4681 487.771 93.8679 487.771 93.0662C487.771 92.2786 487.675 91.6878 487.483 91.294C487.295 90.8955 487.002 90.6962 486.604 90.6962Z" fill="white"/>
<rect x="100.281" y="130.458" width="14.2305" height="65.4601" rx="7.11523" transform="rotate(90 100.281 130.458)" fill="#95ABBC"/>
<rect x="214.064" y="130.731" width="13.6828" height="96.4998" rx="6.84141" transform="rotate(90 214.064 130.731)" fill="#0DBBFC"/>
<path d="M238.416 134.807C238.416 135.266 238.327 135.665 238.149 136.002C237.97 136.34 237.722 136.616 237.403 136.832C237.084 137.043 236.709 137.191 236.278 137.275V137.331C237.094 137.435 237.706 137.697 238.113 138.119C238.526 138.541 238.732 139.094 238.732 139.779C238.732 140.374 238.592 140.902 238.31 141.361C238.034 141.821 237.607 142.182 237.03 142.444C236.458 142.702 235.725 142.831 234.829 142.831C234.285 142.831 233.781 142.786 233.317 142.697C232.858 142.613 232.417 142.47 231.995 142.268V141.171C232.422 141.382 232.886 141.549 233.388 141.671C233.889 141.788 234.374 141.846 234.843 141.846C235.781 141.846 236.458 141.661 236.876 141.291C237.293 140.916 237.502 140.405 237.502 139.758C237.502 139.312 237.384 138.954 237.15 138.682C236.92 138.405 236.587 138.203 236.151 138.077C235.72 137.946 235.2 137.88 234.59 137.88H233.563V136.881H234.597C235.155 136.881 235.629 136.799 236.018 136.635C236.407 136.471 236.702 136.241 236.904 135.946C237.11 135.646 237.213 135.292 237.213 134.884C237.213 134.364 237.04 133.963 236.693 133.681C236.346 133.395 235.875 133.252 235.279 133.252C234.914 133.252 234.581 133.29 234.281 133.365C233.981 133.44 233.699 133.543 233.437 133.674C233.174 133.806 232.912 133.958 232.649 134.132L232.058 133.33C232.433 133.039 232.891 132.788 233.43 132.577C233.969 132.366 234.581 132.261 235.265 132.261C236.315 132.261 237.103 132.5 237.628 132.978C238.153 133.456 238.416 134.066 238.416 134.807ZM247.094 137.535C247.094 138.37 247.031 139.115 246.904 139.772C246.778 140.428 246.578 140.984 246.307 141.439C246.035 141.893 245.683 142.24 245.252 142.479C244.82 142.714 244.302 142.831 243.697 142.831C242.933 142.831 242.3 142.622 241.799 142.205C241.302 141.788 240.929 141.185 240.68 140.398C240.437 139.605 240.315 138.651 240.315 137.535C240.315 136.438 240.425 135.496 240.645 134.708C240.87 133.916 241.231 133.309 241.728 132.887C242.225 132.46 242.882 132.247 243.697 132.247C244.471 132.247 245.109 132.458 245.61 132.88C246.112 133.297 246.485 133.902 246.729 134.694C246.972 135.482 247.094 136.429 247.094 137.535ZM241.489 137.535C241.489 138.492 241.562 139.289 241.707 139.926C241.853 140.564 242.087 141.042 242.41 141.361C242.739 141.675 243.168 141.832 243.697 141.832C244.227 141.832 244.654 141.675 244.977 141.361C245.306 141.047 245.542 140.571 245.688 139.934C245.838 139.296 245.913 138.496 245.913 137.535C245.913 136.593 245.84 135.805 245.695 135.172C245.549 134.535 245.315 134.057 244.991 133.738C244.668 133.414 244.237 133.252 243.697 133.252C243.158 133.252 242.727 133.414 242.403 133.738C242.08 134.057 241.845 134.535 241.7 135.172C241.559 135.805 241.489 136.593 241.489 137.535ZM250.639 132.261C251.342 132.261 251.874 132.542 252.235 133.105C252.601 133.663 252.784 134.453 252.784 135.475C252.784 136.497 252.608 137.294 252.256 137.866C251.905 138.433 251.365 138.717 250.639 138.717C249.964 138.717 249.445 138.433 249.084 137.866C248.728 137.294 248.55 136.497 248.55 135.475C248.55 134.453 248.721 133.663 249.063 133.105C249.406 132.542 249.931 132.261 250.639 132.261ZM250.639 133.098C250.259 133.098 249.98 133.297 249.802 133.696C249.624 134.089 249.535 134.682 249.535 135.475C249.535 136.267 249.624 136.865 249.802 137.268C249.98 137.671 250.259 137.873 250.639 137.873C251.033 137.873 251.326 137.671 251.518 137.268C251.71 136.865 251.806 136.267 251.806 135.475C251.806 134.687 251.71 134.094 251.518 133.696C251.33 133.297 251.037 133.098 250.639 133.098ZM257.151 132.409L251.447 142.69H250.421L256.124 132.409H257.151ZM256.877 136.382C257.575 136.382 258.107 136.663 258.473 137.226C258.839 137.784 259.022 138.574 259.022 139.596C259.022 140.613 258.846 141.408 258.494 141.98C258.143 142.547 257.603 142.831 256.877 142.831C256.197 142.831 255.679 142.547 255.322 141.98C254.966 141.408 254.788 140.613 254.788 139.596C254.788 138.574 254.957 137.784 255.294 137.226C255.637 136.663 256.164 136.382 256.877 136.382ZM256.877 137.226C256.497 137.226 256.218 137.423 256.04 137.817C255.862 138.21 255.773 138.804 255.773 139.596C255.773 140.388 255.862 140.986 256.04 141.389C256.218 141.788 256.497 141.987 256.877 141.987C257.271 141.987 257.564 141.79 257.756 141.396C257.948 140.998 258.044 140.398 258.044 139.596C258.044 138.808 257.948 138.218 257.756 137.824C257.568 137.425 257.275 137.226 256.877 137.226Z" fill="white"/>
<rect x="100.281" y="177.267" width="14.2305" height="65.4601" rx="7.11523" transform="rotate(90 100.281 177.267)" fill="#95ABBC"/>
<rect x="501.403" y="177.181" width="14.403" height="383.839" rx="7.20149" transform="rotate(90 501.403 177.181)" fill="white"/>
<path d="M523.743 189.5H522.604V182.214C522.604 181.938 522.604 181.701 522.604 181.504C522.609 181.302 522.613 181.119 522.618 180.955C522.627 180.786 522.639 180.615 522.653 180.442C522.508 180.592 522.372 180.721 522.245 180.829C522.119 180.932 521.962 181.061 521.774 181.215L520.6 182.158L519.988 181.363L522.773 179.218H523.743V189.5ZM534.433 184.345C534.433 185.18 534.37 185.925 534.243 186.581C534.116 187.238 533.917 187.793 533.645 188.248C533.373 188.703 533.022 189.05 532.59 189.289C532.159 189.523 531.641 189.641 531.036 189.641C530.272 189.641 529.639 189.432 529.137 189.015C528.64 188.597 528.268 187.995 528.019 187.207C527.775 186.415 527.653 185.461 527.653 184.345C527.653 183.248 527.764 182.306 527.984 181.518C528.209 180.726 528.57 180.118 529.067 179.696C529.564 179.27 530.22 179.056 531.036 179.056C531.81 179.056 532.447 179.267 532.949 179.689C533.451 180.107 533.823 180.711 534.067 181.504C534.311 182.291 534.433 183.239 534.433 184.345ZM528.828 184.345C528.828 185.301 528.901 186.099 529.046 186.736C529.191 187.374 529.426 187.852 529.749 188.171C530.077 188.485 530.506 188.642 531.036 188.642C531.566 188.642 531.993 188.485 532.316 188.171C532.644 187.857 532.881 187.381 533.026 186.743C533.176 186.106 533.251 185.306 533.251 184.345C533.251 183.403 533.179 182.615 533.033 181.982C532.888 181.344 532.654 180.866 532.33 180.547C532.007 180.224 531.575 180.062 531.036 180.062C530.497 180.062 530.066 180.224 529.742 180.547C529.419 180.866 529.184 181.344 529.039 181.982C528.898 182.615 528.828 183.403 528.828 184.345ZM542.675 184.345C542.675 185.18 542.612 185.925 542.485 186.581C542.359 187.238 542.16 187.793 541.888 188.248C541.616 188.703 541.264 189.05 540.833 189.289C540.401 189.523 539.883 189.641 539.278 189.641C538.514 189.641 537.881 189.432 537.38 189.015C536.883 188.597 536.51 187.995 536.261 187.207C536.018 186.415 535.896 185.461 535.896 184.345C535.896 183.248 536.006 182.306 536.226 181.518C536.451 180.726 536.812 180.118 537.309 179.696C537.806 179.27 538.463 179.056 539.278 179.056C540.052 179.056 540.69 179.267 541.191 179.689C541.693 180.107 542.066 180.711 542.31 181.504C542.553 182.291 542.675 183.239 542.675 184.345ZM537.07 184.345C537.07 185.301 537.143 186.099 537.288 186.736C537.434 187.374 537.668 187.852 537.992 188.171C538.32 188.485 538.749 188.642 539.278 188.642C539.808 188.642 540.235 188.485 540.558 188.171C540.887 187.857 541.123 187.381 541.269 186.743C541.419 186.106 541.494 185.306 541.494 184.345C541.494 183.403 541.421 182.615 541.276 181.982C541.13 181.344 540.896 180.866 540.573 180.547C540.249 180.224 539.818 180.062 539.278 180.062C538.739 180.062 538.308 180.224 537.984 180.547C537.661 180.866 537.427 181.344 537.281 181.982C537.141 182.615 537.07 183.403 537.07 184.345ZM546.22 179.071C546.923 179.071 547.455 179.352 547.816 179.914C548.182 180.472 548.365 181.262 548.365 182.284C548.365 183.307 548.189 184.104 547.837 184.676C547.486 185.243 546.946 185.527 546.22 185.527C545.545 185.527 545.027 185.243 544.666 184.676C544.309 184.104 544.131 183.307 544.131 182.284C544.131 181.262 544.302 180.472 544.644 179.914C544.987 179.352 545.512 179.071 546.22 179.071ZM546.22 179.907C545.84 179.907 545.561 180.107 545.383 180.505C545.205 180.899 545.116 181.492 545.116 182.284C545.116 183.077 545.205 183.675 545.383 184.078C545.561 184.481 545.84 184.683 546.22 184.683C546.614 184.683 546.907 184.481 547.099 184.078C547.291 183.675 547.387 183.077 547.387 182.284C547.387 181.497 547.291 180.904 547.099 180.505C546.911 180.107 546.618 179.907 546.22 179.907ZM552.732 179.218L547.029 189.5H546.002L551.705 179.218H552.732ZM552.458 183.192C553.156 183.192 553.688 183.473 554.054 184.036C554.42 184.594 554.603 185.384 554.603 186.406C554.603 187.423 554.427 188.218 554.075 188.79C553.724 189.357 553.184 189.641 552.458 189.641C551.778 189.641 551.26 189.357 550.904 188.79C550.547 188.218 550.369 187.423 550.369 186.406C550.369 185.384 550.538 184.594 550.875 184.036C551.218 183.473 551.745 183.192 552.458 183.192ZM552.458 184.036C552.078 184.036 551.799 184.233 551.621 184.626C551.443 185.02 551.354 185.613 551.354 186.406C551.354 187.198 551.443 187.796 551.621 188.199C551.799 188.597 552.078 188.797 552.458 188.797C552.852 188.797 553.145 188.6 553.337 188.206C553.529 187.807 553.625 187.207 553.625 186.406C553.625 185.618 553.529 185.027 553.337 184.633C553.149 184.235 552.856 184.036 552.458 184.036Z" fill="white"/>
<rect x="100.281" y="224.077" width="14.2305" height="65.4601" rx="7.11523" transform="rotate(90 100.281 224.077)" fill="#95ABBC"/>
<rect x="424.347" y="224.351" width="13.6828" height="306.783" rx="6.84141" transform="rotate(90 424.347 224.351)" fill="#2D9CDB"/>
<path d="M443.671 236.31L447.89 227.097H442.285V226.028H449.142V226.928L444.951 236.31H443.671ZM453.833 230.022C454.531 230.022 455.139 230.142 455.654 230.381C456.17 230.616 456.569 230.958 456.85 231.408C457.136 231.858 457.279 232.404 457.279 233.046C457.279 233.75 457.126 234.357 456.822 234.868C456.517 235.374 456.079 235.766 455.507 236.042C454.935 236.314 454.25 236.45 453.453 236.45C452.919 236.45 452.422 236.403 451.962 236.31C451.503 236.216 451.116 236.075 450.802 235.888V234.777C451.144 234.983 451.559 235.147 452.047 235.269C452.534 235.391 453.008 235.452 453.467 235.452C453.988 235.452 454.442 235.37 454.831 235.206C455.225 235.037 455.53 234.784 455.746 234.446C455.966 234.104 456.076 233.675 456.076 233.159C456.076 232.474 455.865 231.947 455.443 231.577C455.026 231.202 454.365 231.014 453.46 231.014C453.169 231.014 452.851 231.037 452.504 231.084C452.157 231.131 451.871 231.183 451.646 231.239L451.055 230.852L451.449 226.028H456.562V227.097H452.447L452.187 230.198C452.365 230.161 452.595 230.123 452.876 230.086C453.158 230.044 453.477 230.022 453.833 230.022ZM460.922 225.88C461.625 225.88 462.157 226.161 462.518 226.724C462.884 227.282 463.067 228.072 463.067 229.094C463.067 230.116 462.891 230.913 462.539 231.485C462.188 232.053 461.648 232.336 460.922 232.336C460.247 232.336 459.729 232.053 459.368 231.485C459.011 230.913 458.833 230.116 458.833 229.094C458.833 228.072 459.004 227.282 459.346 226.724C459.689 226.161 460.214 225.88 460.922 225.88ZM460.922 226.717C460.542 226.717 460.263 226.916 460.085 227.315C459.907 227.709 459.818 228.302 459.818 229.094C459.818 229.886 459.907 230.484 460.085 230.887C460.263 231.291 460.542 231.492 460.922 231.492C461.316 231.492 461.609 231.291 461.801 230.887C461.993 230.484 462.089 229.886 462.089 229.094C462.089 228.306 461.993 227.713 461.801 227.315C461.613 226.916 461.32 226.717 460.922 226.717ZM467.434 226.028L461.731 236.31H460.704L466.407 226.028H467.434ZM467.16 230.001C467.858 230.001 468.391 230.283 468.756 230.845C469.122 231.403 469.305 232.193 469.305 233.215C469.305 234.233 469.129 235.027 468.777 235.599C468.426 236.167 467.886 236.45 467.16 236.45C466.48 236.45 465.962 236.167 465.606 235.599C465.249 235.027 465.071 234.233 465.071 233.215C465.071 232.193 465.24 231.403 465.577 230.845C465.92 230.283 466.447 230.001 467.16 230.001ZM467.16 230.845C466.78 230.845 466.501 231.042 466.323 231.436C466.145 231.83 466.056 232.423 466.056 233.215C466.056 234.008 466.145 234.605 466.323 235.009C466.501 235.407 466.78 235.606 467.16 235.606C467.554 235.606 467.847 235.409 468.039 235.016C468.231 234.617 468.327 234.017 468.327 233.215C468.327 232.428 468.231 231.837 468.039 231.443C467.851 231.044 467.558 230.845 467.16 230.845Z" fill="white"/>
<circle cx="23.0236" cy="23.672" r="5.69218" fill="#FC5B00"/>
<circle cx="45.7923" cy="23.6719" r="5.69218" fill="#ECAA00"/>
<circle cx="68.5611" cy="23.6719" r="5.69218" fill="#009D10"/>
</g>
</g>
<g filter="url(#filter2_b_5_453)">
<rect x="1.55212" y="312.249" width="232.212" height="199.78" rx="18.1618" fill="white" fill-opacity="0.18"/>
</g>
<ellipse cx="26.8035" cy="333.921" rx="5.70332" ry="5.74906" fill="#FC5B00"/>
<ellipse cx="49.6168" cy="333.921" rx="5.70332" ry="5.74906" fill="#ECAA00"/>
<ellipse cx="72.4299" cy="333.921" rx="5.70332" ry="5.74906" fill="#009D10"/>
<rect width="11.243" height="28.114" rx="5.62151" transform="matrix(1 0 0 -1 31.3895 487.291)" fill="#0DBBFC"/>
<rect width="11.243" height="16.2933" rx="5.62151" transform="matrix(1 0 0 -1 53.8755 475.471)" fill="#0DBBFC"/>
<rect x="76.3616" y="383.781" width="11.243" height="75.3967" rx="5.62151" fill="#0DBBFC"/>
<rect x="98.8477" y="407.103" width="11.243" height="52.0748" rx="5.62151" fill="#0DBBFC"/>
<rect x="121.334" y="358.861" width="11.243" height="100.316" rx="5.62151" fill="#95ABBC"/>
<rect x="143.82" y="388.253" width="11.243" height="70.924" rx="5.62151" fill="#0DBBFC"/>
<rect x="166.306" y="374.516" width="11.243" height="84.6615" rx="5.62151" fill="#0DBBFC"/>
<rect x="188.792" y="420.521" width="11.243" height="38.6568" rx="5.62151" fill="#0DBBFC"/>
</g>
<defs>
<filter id="filter0_b_5_453" x="119.604" y="151.387" width="638.258" height="521.503" filterUnits="userSpaceOnUse" color-interpolation-filters="sRGB">
<feFlood flood-opacity="0" result="BackgroundImageFix"/>
<feGaussianBlur in="BackgroundImageFix" stdDeviation="80.4309"/>
<feComposite in2="SourceAlpha" operator="in" result="effect1_backgroundBlur_5_453"/>
<feBlend mode="normal" in="SourceGraphic" in2="effect1_backgroundBlur_5_453" result="shape"/>
</filter>
<filter id="filter1_b_5_453" x="-82.7706" y="-82.1222" width="762.796" height="446.262" filterUnits="userSpaceOnUse" color-interpolation-filters="sRGB">
<feFlood flood-opacity="0" result="BackgroundImageFix"/>
<feGaussianBlur in="BackgroundImageFix" stdDeviation="41.5127"/>
<feComposite in2="SourceAlpha" operator="in" result="effect1_backgroundBlur_5_453"/>
<feBlend mode="normal" in="SourceGraphic" in2="effect1_backgroundBlur_5_453" result="shape"/>
</filter>
<filter id="filter2_b_5_453" x="-81.4733" y="229.223" width="398.262" height="365.831" filterUnits="userSpaceOnUse" color-interpolation-filters="sRGB">
<feFlood flood-opacity="0" result="BackgroundImageFix"/>
<feGaussianBlur in="BackgroundImageFix" stdDeviation="41.5127"/>
<feComposite in2="SourceAlpha" operator="in" result="effect1_backgroundBlur_5_453"/>
<feBlend mode="normal" in="SourceGraphic" in2="effect1_backgroundBlur_5_453" result="shape"/>
</filter>
<clipPath id="clip0_5_453">
<rect width="596.745" height="511.125" fill="white" transform="translate(0.255005 0.903442)"/>
</clipPath>
<clipPath id="clip1_5_453">
<rect width="112.421" height="112.421" fill="white" transform="translate(314.619 369.17)"/>
</clipPath>
<clipPath id="clip2_5_453">
<rect x="0.254761" y="0.903198" width="596.745" height="280.211" rx="18.1618" fill="white"/>
</clipPath>
</defs>
</svg>
